<svg width="57" height="48" viewBox="0 0 57 48" fill="none" xmlns="http://www.w3.org/2000/svg">
<path d="M32.0937 47.3842C31.1844 47.391 30.3036 47.0617 29.614 46.457C29.2802 46.1691 29.0102 45.812 28.822 45.4093C28.6339 45.0067 28.5317 44.5678 28.5226 44.1219C28.5135 43.6759 28.5976 43.2332 28.7692 42.8229C28.9407 42.4126 29.1958 42.0442 29.5177 41.7424L48.0731 23.8075L29.5177 5.87247C29.1958 5.57061 28.9407 5.20221 28.7692 4.79195C28.5976 4.38169 28.5135 3.93893 28.5226 3.49298C28.5317 3.04702 28.6339 2.60813 28.822 2.20551C29.0102 1.8029 29.2802 1.44577 29.614 1.15785C30.3258 0.546792 31.2304 0.219343 32.1604 0.235954C33.0905 0.252565 33.983 0.612153 34.6734 1.24825L55.6199 21.4933C55.9319 21.7876 56.1809 22.1446 56.3512 22.5418C56.5215 22.9391 56.6095 23.3679 56.6095 23.8015C56.6095 24.2351 56.5215 24.664 56.3512 25.0613C56.1809 25.4585 55.9319 25.8155 55.6199 26.1098L34.6734 46.3509C33.9747 47.0195 33.0515 47.3893 32.0937 47.3842Z" fill="#159822"/>
<path d="M18.0502 47.3842C17.141 47.391 16.2602 47.0617 15.5706 46.457C15.2367 46.1691 14.9668 45.812 14.7786 45.4093C14.5904 45.0067 14.4883 44.5678 14.4792 44.1219C14.4701 43.6759 14.5541 43.2332 14.7257 42.8229C14.8973 42.4126 15.1524 42.0442 15.4742 41.7424L34.0297 23.8075L15.4742 5.87247C15.1524 5.57061 14.8973 5.20221 14.7257 4.79195C14.5541 4.38169 14.4701 3.93893 14.4792 3.49298C14.4883 3.04702 14.5904 2.60813 14.7786 2.20551C14.9668 1.8029 15.2367 1.44577 15.5706 1.15785C16.2824 0.546792 17.1869 0.219343 18.1169 0.235954C19.047 0.252565 19.9396 0.612153 20.6299 1.24825L41.5764 21.4933C41.8885 21.7876 42.1375 22.1446 42.3078 22.5418C42.4781 22.9391 42.566 23.3679 42.566 23.8015C42.566 24.2351 42.4781 24.664 42.3078 25.0613C42.1375 25.4585 41.8885 25.8155 41.5764 26.1098L20.6299 46.3509C19.9313 47.0195 19.008 47.3893 18.0502 47.3842Z" fill="#159822" fill-opacity="0.6"/>
<path d="M4.00625 47.3842C3.09703 47.391 2.21622 47.0617 1.52664 46.457C1.19275 46.1691 0.922815 45.812 0.734644 45.4093C0.546474 45.0067 0.444344 44.5678 0.435238 44.1219C0.426133 43.6759 0.510193 43.2332 0.681766 42.8229C0.85334 42.4126 1.10844 42.0442 1.43028 41.7424L19.9857 23.8075L1.43028 5.87247C1.10844 5.57061 0.85334 5.20221 0.681766 4.79195C0.510193 4.38169 0.426133 3.93893 0.435238 3.49298C0.444344 3.04702 0.546474 2.60813 0.734644 2.20551C0.922815 1.8029 1.19275 1.44577 1.52664 1.15785C2.23841 0.546792 3.14294 0.219343 4.07299 0.235954C5.00305 0.252565 5.8956 0.612153 6.58598 1.24825L27.5324 21.4933C27.8444 21.7876 28.0935 22.1446 28.2638 22.5418C28.4341 22.9391 28.522 23.3679 28.522 23.8015C28.522 24.2351 28.4341 24.664 28.2638 25.0613C28.0935 25.4585 27.8444 25.8155 27.5324 26.1098L6.58598 46.3509C5.88732 47.0195 4.96409 47.3893 4.00625 47.3842Z" fill="#159822" fill-opacity="0.2"/>
</svg>
