<svg width="135" height="162" viewBox="0 0 135 162" fill="none" xmlns="http://www.w3.org/2000/svg">
<circle cx="67.5" cy="67.5" r="58" stroke="#D1D1D1"/>
<circle cx="67.5" cy="154.5" r="7.5" fill="#159822"/>
<path d="M132.5 67.5C132.5 103.399 103.399 132.5 67.5 132.5C31.6015 132.5 2.5 103.399 2.5 67.5C2.5 31.6015 31.6015 2.5 67.5 2.5C103.399 2.5 132.5 31.6015 132.5 67.5ZM67.5 134.5C104.503 134.5 134.5 104.503 134.5 67.5C134.5 30.4969 104.503 0.5 67.5 0.5C30.4969 0.5 0.5 30.4969 0.5 67.5C0.5 104.503 30.4969 134.5 67.5 134.5Z" fill="#159822" stroke="#159822"/>
<path fill-rule="evenodd" clip-rule="evenodd" d="M66 148L66 134L69 134L69 148L66 148Z" fill="#159822"/>
<path d="M70.2813 51.2711H46.5831V43.3018C46.5831 38.9653 50.1582 35.4373 54.5524 35.4373C58.8889 35.4373 62.4169 38.9653 62.4169 43.3018V46.4476C62.4169 47.3162 63.1212 48.0205 63.9898 48.0205H70.2814C71.1501 48.0205 71.8543 47.3162 71.8543 46.4476V43.3018C71.8543 33.7616 64.0928 26 54.5525 26C44.9544 26.0001 37.1458 33.7616 37.1458 43.3019V51.5418C35.315 52.191 34 53.9393 34 55.9898V74.9694C34 77.5712 36.1168 79.688 38.7187 79.688H70.2813C72.8832 79.688 75 77.5712 75 74.9694V55.9898C75 53.3879 72.8832 51.2711 70.2813 51.2711ZM40.2916 43.3019C40.2916 35.4962 46.6891 29.1459 54.5524 29.1459C62.3581 29.1459 68.7084 35.4963 68.7084 43.3019V44.8748H65.5626V43.3019C65.5626 37.2308 60.6234 32.2917 54.5524 32.2917C48.4634 32.2917 43.4374 37.2327 43.4374 43.3019V51.2712H40.2916V43.3019ZM71.8542 74.9694C71.8542 75.8367 71.1486 76.5423 70.2813 76.5423H38.7187C37.8514 76.5423 37.1458 75.8367 37.1458 74.9694V55.9898C37.1458 55.1225 37.8514 54.4169 38.7187 54.4169C40.1855 54.4169 69.0109 54.4169 70.2813 54.4169C71.1486 54.4169 71.8542 55.1225 71.8542 55.9898V74.9694Z" fill="#159822"/>
<path d="M54.5527 57.5625C51.9508 57.5625 49.834 59.6793 49.834 62.2812C49.834 64.3317 51.149 66.0801 52.9798 66.7294V71.8234C52.9798 72.6921 53.684 73.3963 54.5527 73.3963C55.4213 73.3963 56.1256 72.6921 56.1256 71.8234V66.7294C57.9563 66.0801 59.2714 64.3317 59.2714 62.2812C59.2714 59.6793 57.1546 57.5625 54.5527 57.5625ZM54.5527 63.854C53.6854 63.854 52.9798 63.1484 52.9798 62.2811C52.9798 61.4138 53.6854 60.7082 54.5527 60.7082C55.42 60.7082 56.1256 61.4138 56.1256 62.2811C56.1256 63.1484 55.42 63.854 54.5527 63.854Z" fill="#159822"/>
<circle cx="81" cy="80" r="22" fill="white"/>
<path d="M69.3161 75.065C69.8689 80.807 76.8466 84.624 83.7812 85.657C82.9262 81.2749 82.4942 76.8212 82.4912 72.357C80.4729 71.8 77.0001 71.016 76.2477 70.863C75.4126 70.695 74.5628 70.6106 73.7108 70.611C72.179 70.626 68.9891 71.664 69.3161 75.065ZM97.9925 78.659C94.5742 76.7525 90.996 75.1465 87.2982 73.859C87.1197 77.9499 86.2536 81.9819 84.7362 85.787C91.6848 86.559 98.2914 84.485 97.9925 78.654V78.659ZM103.138 80C103.138 84.3512 101.843 88.6047 99.4183 92.2225C96.9933 95.8404 93.5466 98.6603 89.5141 100.325C85.4815 101.991 81.0443 102.426 76.7634 101.577C72.4824 100.728 68.5502 98.6331 65.4638 95.5563C62.3774 92.4796 60.2756 88.5596 59.4241 84.292C58.5725 80.0244 59.0095 75.601 60.6799 71.581C62.3502 67.561 65.1788 64.1251 68.808 61.7077C72.4372 59.2903 76.704 58 81.0688 58C86.9216 58.0003 92.5346 60.3183 96.6731 64.444C100.812 68.5698 103.138 74.1654 103.138 80ZM63.7909 70.076C64.6533 69.7308 65.5704 69.5415 66.4994 69.517C68.099 69.6264 69.7174 69.7947 71.3545 70.022C70.6369 69.98 69.9247 69.9517 69.2178 69.937C67.3259 70.047 63.4539 71.572 64.0799 75.892C66.2025 90.533 99.7911 93.692 99.776 79.616C100.191 79.8527 100.603 80.0927 101.01 80.336C101.01 80.224 101.01 80.112 101.01 80C101.009 75.6236 99.5584 71.37 96.8846 67.8989C94.2108 64.4279 90.4627 61.9335 86.2217 60.8026C81.9807 59.6717 77.4839 59.9675 73.4288 61.6442C69.3737 63.3209 65.987 66.2847 63.7939 70.076H63.7909ZM98.8351 89.027C89.8471 95.727 66.6117 91.28 61.1236 80.027C61.129 84.4906 62.641 88.8224 65.4162 92.3252C68.1914 95.8279 72.0684 98.2978 76.4228 99.337C80.7773 100.376 85.3558 99.9243 89.4213 98.0541C93.4868 96.1839 96.8027 93.0043 98.8351 89.027Z" fill="#159822"/>
</svg>
