<svg width="80" height="80" viewBox="0 0 80 80" fill="none" xmlns="http://www.w3.org/2000/svg">
<circle cx="40.0002" cy="40" r="37.9436" fill="white" stroke="#D1D1D1"/>
<circle cx="40.0002" cy="40" r="33.3186" stroke="#D1D1D1"/>
<path d="M77.3652 40C77.3652 60.6362 60.6362 77.3652 40 77.3652C19.3637 77.3652 2.63474 60.6362 2.63474 40C2.63474 19.3637 19.3637 2.63474 40 2.63474C60.6362 2.63474 77.3652 19.3637 77.3652 40ZM40 78.9433C61.5078 78.9433 78.9433 61.5078 78.9433 40C78.9433 18.4922 61.5078 1.05664 40 1.05664C18.4922 1.05664 1.05664 18.4922 1.05664 40C1.05664 61.5078 18.4922 78.9433 40 78.9433Z" fill="#159822" stroke="#159822"/>
<path d="M61.4662 48.2512L58.4014 45.1865C59.4961 43.2229 60.125 40.966 60.125 38.5625C60.125 31.0322 53.9991 24.9062 46.4688 24.9062C43.3221 24.9062 40.4291 25.9865 38.1176 27.7812H30.1344C31.3326 26.7268 32.0938 25.1866 32.0938 23.4688C32.0938 20.2983 29.5142 17.7188 26.3438 17.7188C23.1733 17.7188 20.5938 20.2983 20.5938 23.4688C20.5938 25.2786 21.4361 26.8936 22.7478 27.9487C19.8728 28.6057 17.7188 31.1788 17.7188 34.25V38.5625C17.7188 40.8366 19.2368 42.7614 21.3125 43.3817V59.4062C21.3125 60.9918 22.6019 62.2812 24.1875 62.2812C25.05 62.2812 25.8162 61.8917 26.3438 61.2879C26.8713 61.8917 27.6375 62.2812 28.5 62.2812C30.0856 62.2812 31.375 60.9918 31.375 59.4062V58.2663L37.4226 52.2188L36.7038 51.5L38.5424 49.6614C40.0331 50.7295 41.7415 51.5093 43.5938 51.9082V55.6551L45.3302 56.0885L44.4095 57.6237L48.2527 61.4669L49.7865 60.5455L50.2199 62.2812H55.6551L56.0885 60.5448L57.6223 61.4662L61.4655 57.623L60.5448 56.0878L62.2812 55.6551V50.2199L60.5448 49.7865L61.4662 48.2512ZM58.6875 38.5625C58.6875 45.3001 53.2063 50.7812 46.4688 50.7812C39.7312 50.7812 34.25 45.3001 34.25 38.5625C34.25 31.8249 39.7312 26.3438 46.4688 26.3438C53.2063 26.3438 58.6875 31.8249 58.6875 38.5625ZM56.5312 52.9375C56.5312 54.9191 54.9191 56.5312 52.9375 56.5312C50.9559 56.5312 49.3438 54.9191 49.3438 52.9375C49.3438 52.5666 49.4171 52.2094 49.5263 51.8608C51.3059 51.4518 52.9504 50.695 54.3908 49.6643C55.681 50.2364 56.5312 51.5057 56.5312 52.9375ZM32.8125 47.6087L31.375 49.0462V43.5938H31.7344C32.4287 43.5938 33.0583 43.3106 33.514 42.8542C33.9496 44.1659 34.5806 45.3863 35.3698 46.4889L33.5312 48.3274L32.8125 47.6087ZM32.8125 38.5625C32.8125 38.6502 32.824 38.735 32.8254 38.822C32.4941 38.661 32.1268 38.5625 31.7344 38.5625H31.375V33.8906C31.375 33.2962 31.8587 32.8125 32.4531 32.8125H34.0991C33.2826 34.5627 32.8125 36.5069 32.8125 38.5625ZM27.033 34.7007L26.3438 35.3899L25.6545 34.7007L26.1871 29.2188H26.4997L27.033 34.7007ZM22.0312 23.4688C22.0312 21.0904 23.9654 19.1562 26.3438 19.1562C28.7221 19.1562 30.6562 21.0904 30.6562 23.4688C30.6562 25.8471 28.7221 27.7812 26.3438 27.7812C23.9654 27.7812 22.0312 25.8471 22.0312 23.4688ZM24.1875 29.2188H24.7431L24.158 35.2368L26.3438 37.4226L28.5295 35.2368L27.9444 29.2188H36.5371C35.9153 29.8793 35.3612 30.6009 34.8789 31.375H32.4531C31.0659 31.375 29.9375 32.5034 29.9375 33.8906V38.5625H23.4688C23.0727 38.5625 22.75 38.2405 22.75 37.8438V32.8125H21.3125V37.125H19.1562V34.25C19.1562 31.4763 21.4131 29.2188 24.1875 29.2188ZM19.1562 38.5625H21.4448C21.7423 39.397 22.5329 40 23.4688 40H31.7344C32.3288 40 32.8125 40.4837 32.8125 41.0781C32.8125 41.6725 32.3288 42.1562 31.7344 42.1562H22.75C20.7684 42.1562 19.1562 40.5441 19.1562 38.5625ZM28.5 60.8438C27.7072 60.8438 27.0625 60.199 27.0625 59.4062V46.4688H25.625V59.4062C25.625 60.199 24.9803 60.8438 24.1875 60.8438C23.3947 60.8438 22.75 60.199 22.75 59.4062V43.5938H29.9375V59.4062C29.9375 60.199 29.2928 60.8438 28.5 60.8438ZM31.375 56.2337V51.0788L32.8125 49.6413L35.3899 52.2188L31.375 56.2337ZM35.6875 50.4837L34.5476 49.3438L36.274 47.6173C36.6312 48.0198 37.0114 48.3993 37.4139 48.7572L35.6875 50.4837ZM60.8438 51.3426V54.5324L59.4429 54.8817L59.0591 55.0298L58.7242 55.8484L59.6557 57.4002L57.4002 59.6557L55.8492 58.7249L54.9723 59.0814L54.5324 60.8438H51.3426L50.9926 59.4429L50.8467 59.0584L50.0258 58.7249L48.4748 59.6557L46.2193 57.4002L47.1508 55.8484L46.7915 54.9716L45.0312 54.5324V52.1418C45.5042 52.1914 45.9829 52.2188 46.4688 52.2188C46.9791 52.2188 47.4807 52.1857 47.9767 52.1311C47.9336 52.3963 47.9062 52.6644 47.9062 52.9375C47.9062 55.7112 50.1631 57.9688 52.9375 57.9688C55.7119 57.9688 57.9688 55.7112 57.9688 52.9375C57.9688 51.1751 57.0466 49.5917 55.5998 48.6875C56.3494 48.0105 57.0257 47.2565 57.6115 46.4299L59.6557 48.4741L58.7242 50.0258L59.0857 50.9027L60.8438 51.3426Z" fill="#159822"/>
<path d="M62.2812 21.3125C62.2812 19.3309 60.6691 17.7188 58.6875 17.7188H55.8125C53.8309 17.7188 52.2188 19.3309 52.2188 21.3125V24.9062H58.6875C60.6691 24.9062 62.2812 23.2941 62.2812 21.3125ZM53.6562 21.3125C53.6562 20.1237 54.6237 19.1562 55.8125 19.1562H58.6875C59.8763 19.1562 60.8438 20.1237 60.8438 21.3125C60.8438 22.5013 59.8763 23.4688 58.6875 23.4688H53.6562V21.3125Z" fill="#159822"/>
<path d="M55.0938 20.5938H56.5312V22.0312H55.0938V20.5938Z" fill="#159822"/>
<path d="M57.9688 20.5938H59.4062V22.0312H57.9688V20.5938Z" fill="#159822"/>
<path d="M46.4688 49.3438C52.4135 49.3438 57.25 44.5073 57.25 38.5625C57.25 32.6177 52.4135 27.7812 46.4688 27.7812C40.524 27.7812 35.6875 32.6177 35.6875 38.5625C35.6875 44.5073 40.524 49.3438 46.4688 49.3438ZM42.875 42.1562H44.3125V47.6453C43.818 47.5282 43.3357 47.3787 42.875 47.1853V42.1562ZM41.4375 46.4235C40.9214 46.0921 40.4399 45.7126 40 45.2893V37.8438H41.4375V46.4235ZM45.75 47.8696V32.0938H47.1875V47.8696C46.9496 47.8883 46.7117 47.9062 46.4688 47.9062C46.2258 47.9062 45.9879 47.8883 45.75 47.8696ZM48.625 39.2812H50.0625V47.1853C49.6018 47.378 49.1195 47.5275 48.625 47.6453V39.2812ZM52.9375 45.2893C52.4976 45.7126 52.0161 46.0921 51.5 46.4235V36.4062H52.9375V45.2893ZM46.4688 29.2188C51.6208 29.2188 55.8125 33.4105 55.8125 38.5625C55.8125 40.3845 55.2806 42.0808 54.375 43.519V34.9688H50.0625V37.8438H48.625V30.6562H44.3125V40.7188H42.875V36.4062H38.5625V43.519C37.6569 42.0801 37.125 40.3838 37.125 38.5625C37.125 33.4105 41.3168 29.2188 46.4688 29.2188Z" fill="#159822"/>
</svg>
