<svg width="20" height="19" viewBox="0 0 20 19" fill="none" xmlns="http://www.w3.org/2000/svg">
<path fill-rule="evenodd" clip-rule="evenodd" d="M18.5418 14.6533L14.6898 12.0893C14.4543 11.9335 14.1685 11.872 13.8895 11.9172C13.6105 11.9625 13.3589 12.1111 13.1851 12.3333L12.0616 13.7733C11.9903 13.865 11.8885 13.9284 11.7745 13.952C11.6605 13.9757 11.5418 13.958 11.4397 13.9023L11.229 13.7853C9.96919 13.0997 8.83338 12.2087 7.86856 11.1493C6.80811 10.1821 5.91353 9.04845 5.22029 7.79329L5.10996 7.5793C5.05124 7.47965 5.03107 7.36204 5.05324 7.2486C5.0754 7.13516 5.13838 7.0337 5.23033 6.96331L6.67483 5.8443C6.89637 5.67021 7.04483 5.42003 7.0912 5.14264C7.13758 4.86526 7.07854 4.58061 6.92562 4.3443L4.34758 0.498295C4.18904 0.25924 3.94399 0.0905047 3.66359 0.0273322C3.38319 -0.0358403 3.08914 0.0114472 2.84289 0.159305L1.22787 1.1263C0.723647 1.42507 0.353748 1.90548 0.194626 2.4683C-0.387187 4.5783 0.0541893 8.2203 5.43094 13.5853C9.70425 17.8523 12.8842 18.9993 15.071 18.9993C15.5757 19.0024 16.0785 18.9371 16.5656 18.8053C17.1299 18.6443 17.6109 18.2739 17.9098 17.7703L18.8819 16.1633C19.0293 15.9166 19.0762 15.6229 19.0129 15.3427C18.9497 15.0626 18.781 14.8172 18.5418 14.6573V14.6533Z" fill="#159822"/>
</svg>
