<svg width="80" height="80" viewBox="0 0 80 80" fill="none" xmlns="http://www.w3.org/2000/svg">
<circle cx="40.0002" cy="40" r="37.9436" fill="white" stroke="#D1D1D1"/>
<circle cx="40.0002" cy="40" r="33.3186" stroke="#D1D1D1"/>
<path d="M77.3652 40C77.3652 60.6362 60.6362 77.3652 40 77.3652C19.3637 77.3652 2.63474 60.6362 2.63474 40C2.63474 19.3637 19.3637 2.63474 40 2.63474C60.6362 2.63474 77.3652 19.3637 77.3652 40ZM40 78.9433C61.5078 78.9433 78.9433 61.5078 78.9433 40C78.9433 18.4922 61.5078 1.05664 40 1.05664C18.4922 1.05664 1.05664 18.4922 1.05664 40C1.05664 61.5078 18.4922 78.9433 40 78.9433Z" fill="#159822" stroke="#159822"/>
<path d="M59.7798 37.7866L58.5886 33.0217C58.9143 32.9525 59.1586 32.6636 59.1586 32.3174V31.5492C59.1586 29.8811 57.8016 28.5241 56.1336 28.5241H50.7078V26.9395C50.7078 26.1186 50.04 25.4509 49.2192 25.4509H21.5615C20.7407 25.4509 20.073 26.1186 20.073 26.9395V40C20.073 40.3978 20.3955 40.7203 20.7933 40.7203C21.191 40.7203 21.5136 40.3979 21.5136 40V26.9395C21.5136 26.913 21.535 26.8915 21.5615 26.8915H49.2191C49.2456 26.8915 49.2671 26.913 49.2671 26.9395V40.0002C49.2671 40.398 49.5896 40.7205 49.9874 40.7205C50.3851 40.7205 50.7077 40.3981 50.7077 40.0002V39.1837H59.2041C59.2048 39.1837 59.2054 39.1839 59.206 39.1839C59.2067 39.1839 59.2073 39.1838 59.208 39.1838C60.2535 39.1845 61.1412 39.8708 61.4462 40.8164H59.2065C58.8088 40.8164 58.4863 41.1388 58.4863 41.5366V43.0732C58.4863 44.3176 59.4986 45.3299 60.743 45.3299H61.5594V48.499H59.676C59.0574 46.7126 57.3592 45.4259 55.3652 45.4259C53.3711 45.4259 51.6729 46.7126 51.0543 48.499H50.7075V43.0731C50.7075 42.6753 50.385 42.3528 49.9872 42.3528C49.5895 42.3528 49.2669 42.6752 49.2669 43.0731V48.4988H34.3234C33.7047 46.7125 32.0066 45.4257 30.0125 45.4257C28.0184 45.4257 26.3202 46.7125 25.7016 48.4988H21.5615C21.535 48.4988 21.5136 48.4773 21.5136 48.4508V46.8663H24.6347C25.0324 46.8663 25.3549 46.5438 25.3549 46.146C25.3549 45.7482 25.0325 45.4257 24.6347 45.4257H17.7203C17.3225 45.4257 17 45.7482 17 46.146C17 46.5438 17.3224 46.8663 17.7203 46.8663H20.0731V48.4508C20.0731 49.2717 20.7408 49.9394 21.5616 49.9394H25.4522C25.4521 49.9554 25.451 49.9713 25.451 49.9873C25.451 52.5026 27.4973 54.5489 30.0125 54.5489C32.5277 54.5489 34.5741 52.5026 34.5741 49.9873C34.5741 49.9712 34.573 49.9554 34.5728 49.9394H50.8049C50.8047 49.9554 50.8036 49.9713 50.8036 49.9873C50.8036 52.5026 52.85 54.5489 55.3652 54.5489C57.8803 54.5489 59.9267 52.5026 59.9267 49.9873C59.9267 49.9712 59.9256 49.9554 59.9255 49.9394H62.2796C62.6774 49.9394 62.9999 49.6169 62.9999 49.2191V41.5365C63 39.6397 61.6005 38.0637 59.7798 37.7866ZM50.7078 29.9646H56.1336C57.0073 29.9646 57.7182 30.6754 57.7182 31.5492V31.5971H50.7078V29.9646ZM50.7078 37.7433V33.0376H57.1078L58.2842 37.7433H50.7078ZM30.0125 53.1086C28.2916 53.1086 26.8914 51.7086 26.8914 49.9875C26.8914 48.2665 28.2916 46.8664 30.0125 46.8664C31.7335 46.8664 33.1336 48.2665 33.1336 49.9875C33.1336 51.7086 31.7335 53.1086 30.0125 53.1086ZM55.3653 53.1086C53.6444 53.1086 52.2443 51.7086 52.2443 49.9875C52.2443 48.2665 53.6444 46.8664 55.3653 46.8664C57.0863 46.8664 58.4864 48.2665 58.4864 49.9875C58.4864 51.7086 57.0863 53.1086 55.3653 53.1086ZM61.5595 43.8894H60.7432C60.2931 43.8894 59.9269 43.5232 59.9269 43.0731V42.2567H61.5594V43.8894H61.5595Z" fill="#159822"/>
<path d="M30.0129 48.499C29.1921 48.499 28.5244 49.1667 28.5244 49.9876C28.5244 50.8084 29.1921 51.4761 30.0129 51.4761C30.8338 51.4761 31.5015 50.8084 31.5015 49.9876C31.5015 49.1667 30.8338 48.499 30.0129 48.499Z" fill="#159822"/>
<path d="M55.3655 48.499C54.5447 48.499 53.877 49.1667 53.877 49.9876C53.877 50.8084 54.5447 51.4761 55.3655 51.4761C56.1863 51.4761 56.854 50.8084 56.854 49.9876C56.854 49.1667 56.1863 48.499 55.3655 48.499Z" fill="#159822"/>
<path d="M46.9145 45.4258H36.1588C35.761 45.4258 35.4385 45.7482 35.4385 46.1461C35.4385 46.5439 35.7609 46.8663 36.1588 46.8663H46.9145C47.3122 46.8663 47.6348 46.5439 47.6348 46.1461C47.6348 45.7482 47.3123 45.4258 46.9145 45.4258Z" fill="#159822"/>
<path d="M28.4756 42.3528H19.2564C18.8587 42.3528 18.5361 42.6752 18.5361 43.0731C18.5361 43.4709 18.8586 43.7933 19.2564 43.7933H28.4756C28.8734 43.7933 29.1959 43.4709 29.1959 43.0731C29.1959 42.6752 28.8734 42.3528 28.4756 42.3528Z" fill="#159822"/>
<path d="M42.0458 32.5761C41.7646 32.2949 41.3085 32.2949 41.0273 32.5762L34.6221 38.9813L31.2901 35.6492C31.0088 35.3679 30.5527 35.3679 30.2715 35.6492C29.9902 35.9305 29.9902 36.3865 30.2715 36.6678L34.1129 40.5092C34.2535 40.6498 34.4378 40.7201 34.6221 40.7201C34.8064 40.7201 34.9908 40.6498 35.1314 40.5092L42.0457 33.5948C42.327 33.3134 42.327 32.8574 42.0458 32.5761Z" fill="#159822"/>
</svg>
