<svg width="135" height="162" viewBox="0 0 135 162" fill="none" xmlns="http://www.w3.org/2000/svg">
<circle cx="67.5" cy="67.5" r="58" stroke="#D1D1D1"/>
<circle cx="67.5" cy="154.5" r="7.5" fill="#159822"/>
<path d="M132.5 67.5C132.5 103.399 103.399 132.5 67.5 132.5C31.6015 132.5 2.5 103.399 2.5 67.5C2.5 31.6015 31.6015 2.5 67.5 2.5C103.399 2.5 132.5 31.6015 132.5 67.5ZM67.5 134.5C104.503 134.5 134.5 104.503 134.5 67.5C134.5 30.4969 104.503 0.5 67.5 0.5C30.4969 0.5 0.5 30.4969 0.5 67.5C0.5 104.503 30.4969 134.5 67.5 134.5Z" fill="#159822" stroke="#159822"/>
<path fill-rule="evenodd" clip-rule="evenodd" d="M66 148L66 134L69 134L69 148L66 148Z" fill="#159822"/>
<g clip-path="url(#clip0)">
<path d="M64.9804 80.8013C64.4539 80.4149 63.713 80.5277 63.3261 81.0545L63.18 81.2534C62.7935 81.7798 62.906 82.5196 63.4318 82.9069C63.643 83.0626 63.8891 83.1378 64.1329 83.1378C64.4956 83.1378 64.8537 82.9715 65.0855 82.6574L65.2339 82.4557C65.6207 81.9289 65.5072 81.1882 64.9804 80.8013Z" fill="#159822"/>
<path d="M65.2891 92.0603L62.2453 86.5257L65.0872 82.6552C65.4742 82.1284 65.3606 81.3876 64.8337 81.0007C64.3069 80.6137 63.5662 80.7273 63.1794 81.2543L59.8902 85.7339C59.6175 86.1053 59.5852 86.601 59.8071 87.0047L63.2152 93.201V93.2008C63.4308 93.5925 63.8357 93.8142 64.2533 93.8142C64.4462 93.814 64.6418 93.7669 64.8226 93.6675C65.3952 93.3526 65.6041 92.633 65.2891 92.0603Z" fill="#159822"/>
<path d="M74.1102 85.734L70.8344 81.2726C70.5627 80.9027 70.1024 80.7229 69.6521 80.8121C69.2018 80.9005 68.8435 81.2415 68.7322 81.6865C68.6468 82.0283 68.718 82.3901 68.9265 82.6741L71.7544 86.5257L68.7314 92.0228C68.6354 92.1974 68.585 92.3942 68.585 92.5937C68.585 93.1339 68.9508 93.6056 69.474 93.74C69.5721 93.7653 69.6709 93.7774 69.7685 93.7774C70.1922 93.7774 70.5938 93.5488 70.8055 93.1642L74.1932 87.005C74.4153 86.601 74.3828 86.1053 74.1102 85.734Z" fill="#159822"/>
<path d="M75.9857 67.1353C75.5964 66.9309 75.1259 66.9588 74.7637 67.2085C74.0597 67.6934 73.4065 68.2072 72.8221 68.7353C69.6371 71.6146 66.6111 71.225 66.4926 71.208C66.4212 71.1968 66.3486 71.1916 66.2769 71.194C65.0181 71.2262 62.7485 70.076 60.3476 68.1904C59.9804 67.902 59.6039 67.6272 59.2279 67.3735C58.8653 67.1285 58.3968 67.1037 58.0104 67.3092C57.6239 67.5146 57.3823 67.9165 57.3823 68.3543V72.4143C57.3823 72.7733 57.5457 73.1127 57.8257 73.3374C57.8588 73.3641 57.8932 73.3887 57.9288 73.4114L66.3207 79.0191C66.3221 79.0199 66.3233 79.021 66.3247 79.0219L66.3469 79.0367C66.5444 79.1674 66.7721 79.2334 67.0005 79.2334C67.1927 79.2334 67.385 79.1868 67.5606 79.0929C67.5977 79.0731 67.6332 79.0513 67.6674 79.0281C67.6714 79.0255 67.6754 79.0229 67.6795 79.0202C67.6841 79.0172 67.6888 79.014 67.6934 79.0109L76.0655 73.4165C76.0992 73.3951 76.132 73.3722 76.1636 73.3475C76.4508 73.1233 76.6187 72.7792 76.6187 72.4147V68.1831C76.6187 67.7432 76.3751 67.34 75.9857 67.1353ZM74.2515 71.7813L67.0004 76.6266L59.7493 71.7812V70.7048C61.5149 71.9879 64.1122 73.5617 66.2293 73.5615C66.2337 73.5615 66.2386 73.5615 66.2431 73.5615C66.9539 73.6401 70.5787 73.8538 74.2518 70.6316V71.7813H74.2515Z" fill="#159822"/>
<path d="M68.1675 77.8556C68.0894 77.3862 67.7376 77.0093 67.2747 76.8988C66.8115 76.789 66.3278 76.9661 66.0462 77.3497L63.3259 81.0549C62.9389 81.5819 63.0524 82.3226 63.5795 82.7094C63.7904 82.8644 64.0357 82.9391 64.2789 82.9391C64.6429 82.9391 65.0019 82.7716 65.234 82.4556L67.9401 78.7699C68.0941 78.5687 68.1838 78.3182 68.1838 78.0505C68.1836 77.9854 68.1782 77.9198 68.1675 77.8556Z" fill="#159822"/>
<path d="M85.0309 39.7012C85.0074 39.5158 84.453 35.5146 80.6867 33.9361C80.796 33.2334 80.7846 32.3302 80.3384 31.4515C79.7388 30.2706 78.5555 29.501 76.8212 29.1638C76.7468 29.1493 76.6714 29.1421 76.5955 29.1421H60.7105C54.2604 29.1421 49.0127 34.3896 49.0127 40.84V47.0732C49.0127 48.6971 49.5663 50.2808 50.5712 51.532C51.0694 52.1524 51.683 53.2359 51.7755 54.8741C51.8116 55.5137 52.347 56.0079 52.9905 55.9901C53.6309 55.9721 54.1406 55.4476 54.1406 54.8071V46.6805C54.9442 43.357 57.687 42.7102 58.1585 42.6229H63.2967C63.9011 42.6229 64.4954 42.5306 65.0635 42.3485C66.0405 42.0351 67.5905 41.4584 68.719 41.0298C69.4739 40.7428 70.3098 40.7323 71.0723 41.0003L76.5731 42.9313C79.323 43.9458 79.8138 46.3599 79.8747 46.7392V56.4923C79.8747 57.1118 80.3522 57.6257 80.9699 57.6718C81 57.674 81.0296 57.6752 81.0591 57.6752C81.6396 57.6751 82.1408 57.2497 82.2287 56.6669C82.2334 56.6364 82.7059 53.5839 84.2297 51.1399C84.7599 50.2891 85.0403 49.3191 85.0403 48.3347V39.8506C85.0403 39.8007 85.0372 39.7508 85.0309 39.7012ZM82.6732 48.3342C82.6732 48.8629 82.524 49.3873 82.2416 49.8537V46.6583C82.2416 46.6155 82.2392 46.5729 82.2346 46.5304C82.216 46.3586 81.727 42.3027 77.3813 40.7063C77.376 40.7044 77.3707 40.7025 77.3653 40.7006L71.8563 38.7666C71.2351 38.5485 70.5853 38.4397 69.9359 38.4397C69.2375 38.4397 68.5396 38.5656 67.8783 38.8171C66.2984 39.4173 65.0749 39.8591 64.3405 40.0945C64.0065 40.2016 63.6553 40.256 63.2966 40.256H58.0628C58.0121 40.256 57.9612 40.2593 57.9108 40.2657C57.7105 40.2917 52.99 40.963 51.802 46.2875C51.7832 46.3721 51.7736 46.4585 51.7736 46.5452V48.981C51.5159 48.3854 51.3794 47.7349 51.3794 47.0733V40.8403C51.3794 35.6953 55.5654 31.5094 60.7102 31.5094H76.476C77.1287 31.6484 77.9219 31.9338 78.2228 32.5143C78.5913 33.2248 78.1716 34.2032 78.1712 34.204C78.0198 34.5259 78.0216 34.8988 78.1754 35.2194C78.3294 35.54 78.6195 35.7743 78.9654 35.8576C81.9784 36.5829 82.5929 39.4727 82.6731 39.9402V48.3342H82.6732Z" fill="#159822"/>
<path d="M82.2346 46.5306C82.216 46.3588 81.7269 42.3029 77.3813 40.7065C77.376 40.7046 77.3707 40.7027 77.3653 40.7008L71.8562 38.7668C70.567 38.3142 69.1544 38.3323 67.8781 38.8171C66.2982 39.4173 65.0747 39.859 64.3404 40.0946C64.0064 40.2016 63.6551 40.2559 63.2964 40.2559H58.0626C58.0119 40.2559 57.9611 40.2592 57.9106 40.2656C57.7103 40.2916 52.9898 40.9629 51.8019 46.2874C51.783 46.372 51.7734 46.4584 51.7734 46.5451V56.7192C51.7734 56.7279 51.7736 56.7367 51.7737 56.7454C51.7815 57.0989 52.0316 65.4452 57.7984 69.2622L57.8282 69.2833C57.8529 69.3008 57.8777 69.3183 57.9035 69.3356C58.2323 69.5577 58.5625 69.7987 58.8854 70.0522C60.5654 71.3714 63.7314 73.5617 66.229 73.5617C66.2337 73.5617 66.238 73.5617 66.2428 73.5617C66.3784 73.5767 66.6206 73.5966 66.949 73.5966C68.3644 73.5966 71.3843 73.2257 74.4091 70.4913C74.9167 70.0326 75.4875 69.5839 76.1063 69.1576L76.1947 69.0957C76.2236 69.0753 76.2524 69.0548 76.2822 69.0348C78.2059 67.7429 81.5374 64.4091 82.2369 56.5978C82.24 56.5628 82.2417 56.5274 82.2417 56.4921V46.6585C82.2415 46.6158 82.2391 46.5733 82.2346 46.5306ZM79.8744 56.4386C79.2295 63.4882 76.2259 66.221 74.9624 67.0696C74.9175 67.0999 74.8732 67.131 74.8289 67.1622L74.7633 67.2084C74.0593 67.6934 73.4061 68.2072 72.8217 68.7353C69.6486 71.6039 66.6325 71.2277 66.4845 71.2069C66.4158 71.1967 66.346 71.1923 66.2765 71.1942C65.0177 71.2265 62.7481 70.0762 60.3472 68.1906C59.98 67.9021 59.6035 67.6273 59.228 67.374L59.1989 67.3535C59.1705 67.3332 59.1422 67.3131 59.1088 67.291C54.4552 64.2109 54.1507 57.0029 54.1405 56.7021V46.6806C54.947 43.3449 57.7066 42.7055 58.1564 42.6229H63.2965C63.901 42.6229 64.4953 42.5306 65.0633 42.3485C66.0403 42.0352 67.5905 41.4585 68.7188 41.0299C69.4738 40.7429 70.3097 40.7324 71.0721 41.0003L76.5729 42.9314C79.3229 43.9458 79.8137 46.36 79.8745 46.7393V56.4386H79.8744Z" fill="#159822"/>
<path d="M68.0582 77.5213C67.8737 77.1525 67.5106 76.9062 67.0998 76.8712C66.6896 76.8373 66.2896 77.0177 66.0455 77.3502L63.2105 81.2114C62.824 81.738 62.937 82.4782 63.4632 82.8653C63.6743 83.0206 63.92 83.0956 64.1635 83.0956C64.5266 83.0956 64.8851 82.929 65.1171 82.6141L67.9522 78.7671C68.1022 78.5637 68.1831 78.3036 68.1831 78.051C68.1833 77.8674 68.1402 77.6858 68.0582 77.5213Z" fill="#159822"/>
<path d="M68.1345 96.577C67.6899 96.1121 66.9553 96.0873 66.4806 96.5217L66.21 96.7691C65.8049 97.1395 65.7077 97.74 65.9754 98.2193L65.9838 98.2342C66.1645 98.5581 66.4869 98.7785 66.8543 98.8295C66.9087 98.837 66.9631 98.8407 67.0172 98.8407C67.3288 98.8407 67.6305 98.7175 67.8541 98.494L68.1162 98.2316C68.571 97.7767 68.5792 97.0417 68.1345 96.577Z" fill="#159822"/>
<path d="M67.7904 96.769L67.5199 96.5216C67.0452 96.0873 66.3105 96.1121 65.8658 96.5769C65.4211 97.042 65.4293 97.7772 65.8843 98.2319L66.1468 98.4943C66.3703 98.7178 66.6719 98.8409 66.9835 98.8409C67.0392 98.8409 67.0951 98.837 67.151 98.829C67.5196 98.7763 67.842 98.5531 68.0212 98.2266L68.0296 98.2117C68.2918 97.7332 68.1931 97.1372 67.7904 96.769Z" fill="#159822"/>
<path d="M67.8103 96.7878L67.8088 96.7864C67.626 96.6155 67.3896 96.5029 67.1291 96.4743C66.7804 96.4363 66.4406 96.5544 66.1936 96.7845L66.19 96.7878C65.9508 97.006 65.8114 97.3129 65.8045 97.6367C65.7975 97.9607 65.9236 98.2731 66.1531 98.5014L66.1655 98.5139C66.3965 98.7434 66.6982 98.8581 67.0001 98.8581C67.303 98.8581 67.6059 98.7425 67.8368 98.5117L67.8492 98.4993C68.0778 98.2705 68.2031 97.9584 68.1956 97.6352C68.1884 97.3118 68.0491 97.0057 67.8103 96.7878Z" fill="#159822"/>
<path d="M67.3838 76.905C66.8936 76.748 66.3558 76.93 66.0573 77.3497C65.7235 77.8198 65.7786 78.4603 66.1853 78.8689C66.4142 79.0989 66.718 79.2168 67.0241 79.2168C67.2618 79.2168 67.5008 79.1457 67.707 79.0005C68.022 78.7788 68.2094 78.4179 68.2094 78.0326V78.0298C68.2094 77.5147 67.8745 77.0615 67.3838 76.905Z" fill="#159822"/>
<path d="M67.9617 77.3398L67.9515 77.3261C67.6479 76.9152 67.1147 76.7459 66.6295 76.9057C66.1443 77.0655 65.8164 77.5189 65.8164 78.0297V78.0499C65.8164 78.4857 66.061 78.8828 66.4449 79.089C66.6188 79.1824 66.8108 79.2285 67.0024 79.2285C67.2336 79.2285 67.4646 79.1615 67.6631 79.0299C67.9336 78.8508 68.1189 78.5684 68.1754 78.2489C68.2318 77.9295 68.1546 77.6007 67.9617 77.3398Z" fill="#159822"/>
<path d="M81.0795 73.6222C80.9569 73.298 80.6983 73.044 80.3721 72.9272L75.8343 71.3006C75.7975 71.2874 75.7594 71.2757 75.7214 71.2664C75.3975 71.1853 75.0543 71.2448 74.7768 71.4304L66.3688 77.0488C66.3666 77.0503 66.3642 77.0518 66.3618 77.0534L67.0221 78.0351L66.3471 77.0634C66.1004 77.2265 65.9238 77.4766 65.8522 77.7634C65.8128 77.9209 65.8064 78.0854 65.833 78.2455C65.8635 78.4284 65.9365 78.6018 66.0464 78.7515L72.2022 87.1352C72.4259 87.4401 72.7808 87.6184 73.156 87.6184C73.1817 87.6184 73.2075 87.6174 73.2333 87.6157C73.6365 87.5891 73.9984 87.3592 74.1931 87.0049L81.0095 74.6116C81.1767 74.3078 81.2023 73.9461 81.0795 73.6222ZM73.0127 84.2397L68.6862 78.3471L75.5963 73.7297L78.2668 74.6871L73.0127 84.2397Z" fill="#159822"/>
<path d="M68.166 77.8461C68.1103 77.5284 67.9276 77.2472 67.6596 77.0674L59.2236 71.4303C58.9551 71.2507 58.6241 71.1892 58.3087 71.2592C58.2603 71.2698 58.2127 71.2838 58.1661 71.3004L53.6283 72.9271C53.3021 73.044 53.0435 73.298 52.9209 73.6221C52.7982 73.9462 52.8237 74.3077 52.9907 74.6115L59.8071 87.0048C60.0018 87.3589 60.3637 87.589 60.7669 87.6155C60.7926 87.6172 60.8184 87.618 60.8442 87.618C61.2193 87.618 61.5741 87.4397 61.7982 87.1347L65.0874 82.6551C65.09 82.6517 65.0926 82.648 65.0951 82.6443L67.9541 78.7504C68.1449 78.4904 68.2215 78.1639 68.166 77.8461ZM63.1796 81.2537C63.1767 81.2575 63.174 81.2614 63.1711 81.2652L60.9873 84.2395L55.7332 74.6868L58.4039 73.7295L65.3138 78.3469L63.1796 81.2537Z" fill="#159822"/>
<path d="M101.942 93.8257L100.415 84.6063C99.9339 81.7009 97.9146 79.2734 95.1453 78.2718L80.375 72.928C79.9195 72.7634 79.4105 72.8925 79.0887 73.2537C78.7669 73.6151 78.6973 74.136 78.9133 74.5692L81.9971 80.7536L78.9711 80.8002C78.5603 80.8066 78.182 81.0254 77.9721 81.3786C77.7621 81.7319 77.7504 82.1686 77.941 82.5327L79.1821 84.9024L66.4805 96.5218C66.4675 96.5337 66.4548 96.5457 66.4423 96.5581L66.1801 96.8204C65.8086 97.192 65.7265 97.764 65.9787 98.225L65.988 98.2418C66.1957 98.6212 66.5938 98.8573 67.0264 98.8573H97.6748C98.9481 98.8573 100.15 98.3005 100.974 97.3295C101.797 96.3585 102.15 95.0813 101.942 93.8257ZM99.1686 95.7987C98.7957 96.2383 98.2513 96.4905 97.675 96.4905H70.0214L81.4526 86.0336C81.8491 85.6712 81.9516 85.0873 81.7022 84.6114L80.93 83.1371L83.9141 83.0912C84.3208 83.085 84.6956 82.8702 84.9071 82.5228C85.1183 82.1752 85.1365 81.7437 84.955 81.3796L82.3523 76.1602L94.3407 80.4973C96.306 81.2083 97.739 82.9309 98.0804 84.9928L99.6071 94.2122C99.6071 94.2123 99.6071 94.2123 99.6071 94.2123C99.7012 94.7809 99.5415 95.359 99.1686 95.7987Z" fill="#159822"/>
<path d="M67.8202 96.7965L67.8064 96.7841C67.338 96.36 66.6186 96.3788 66.1729 96.827L66.1606 96.8394C65.8236 97.1785 65.7237 97.6871 65.9071 98.1284C66.0907 98.5699 66.522 98.8574 66.9999 98.8574H67.0259C67.5152 98.8574 67.9542 98.5561 68.13 98.0996C68.3063 97.6428 68.1831 97.1249 67.8202 96.7965Z" fill="#159822"/>
<path d="M67.7828 96.7623C67.5142 96.5204 67.1498 96.4145 66.793 96.4753C66.4365 96.5356 66.1273 96.7559 65.9534 97.0728L65.9452 97.0877C65.6957 97.5426 65.7715 98.1069 66.1323 98.4799L66.1366 98.4843C66.3685 98.724 66.6774 98.8448 66.9872 98.8448C67.2723 98.8448 67.5582 98.7423 67.7846 98.5354L67.797 98.5242C67.9045 98.4263 67.9931 98.309 68.0582 98.1789C68.2965 97.7027 68.1786 97.1183 67.7828 96.7623Z" fill="#159822"/>
<path d="M67.8344 96.8349L67.8294 96.8298C67.8263 96.8267 67.823 96.8234 67.82 96.8204L67.5575 96.5581C67.5452 96.5457 67.5325 96.5335 67.5196 96.5219L54.818 84.9026L56.0593 82.5328C56.25 82.1689 56.2381 81.7321 56.0283 81.3788C55.8183 81.0256 55.4401 80.8067 55.0293 80.8003L52.003 80.7537L55.0868 74.5694C55.3028 74.1362 55.2331 73.6152 54.9114 73.2539C54.5897 72.8925 54.08 72.7633 53.6251 72.9282L38.855 78.272C36.0856 79.2734 34.0663 81.7009 33.5851 84.6064L32.0584 93.8258C31.8505 95.082 32.2035 96.3589 33.0268 97.3298C33.8502 98.3006 35.0527 98.8575 36.3255 98.8575H67.0001C67.4794 98.8575 67.9113 98.5683 68.094 98.1253C68.2768 97.6824 68.1742 97.1727 67.8344 96.8349ZM36.3257 96.4906C35.7493 96.4906 35.2049 96.2385 34.8322 95.7988C34.4595 95.3593 34.2998 94.7811 34.3938 94.2123L35.9206 84.9929C36.262 82.9308 37.6949 81.2084 39.6603 80.4975L51.6485 76.1604L49.0459 81.3795C48.8643 81.7435 48.8824 82.175 49.0939 82.5227C49.3051 82.8702 49.6801 83.0849 50.0869 83.0911L53.0709 83.1371L52.2987 84.6114C52.0495 85.0871 52.152 85.6712 52.5482 86.0337L63.9794 96.4906H36.3257Z" fill="#159822"/>
<path d="M71.0281 82.26C71.1136 81.9182 71.0423 81.5563 70.8338 81.2724L67.9537 77.35C67.651 76.9377 67.1173 76.7738 66.6314 76.9332C66.369 77.0192 66.1529 77.1928 66.009 77.4147L63.1815 81.2512C63.1411 81.3059 63.1051 81.3646 63.0746 81.4256C62.8809 81.8132 62.9144 82.2756 63.1619 82.6312L64.3659 84.3603L63.0832 92.4455C63.0421 92.7051 63.0886 92.9709 63.2152 93.2012L65.963 98.1971C66.1709 98.5754 66.5685 98.8103 67 98.8103C67.4316 98.8103 67.829 98.5754 68.037 98.1971L70.8053 93.1642C70.9012 92.9895 70.9517 92.7933 70.9517 92.5939V92.5932C70.9517 92.5312 70.9466 92.4691 70.9371 92.4077L69.6603 84.3604L70.8513 82.6503C70.9331 82.5319 70.9934 82.3995 71.0281 82.26ZM67 95.1711L65.4844 92.4158L66.7784 84.2606C66.8263 83.9585 66.7554 83.6498 66.5807 83.3989L65.5889 81.9745L67.0034 80.0553L68.4253 81.9918L67.4454 83.3989C67.2707 83.6496 67.1999 83.9585 67.2477 84.2606L68.5357 92.3786L67 95.1711Z" fill="#159822"/>
</g>
<defs>
<clipPath id="clip0">
<rect width="70" height="70" fill="white" transform="translate(32 29)"/>
</clipPath>
</defs>
</svg>
