<svg width="80" height="80" viewBox="0 0 80 80" fill="none" xmlns="http://www.w3.org/2000/svg">
<circle cx="40.0002" cy="40.0002" r="37.9436" fill="white" stroke="#D1D1D1"/>
<circle cx="40.0002" cy="40.0002" r="33.3186" stroke="#D1D1D1"/>
<path d="M77.3652 40C77.3652 60.6362 60.6362 77.3652 40 77.3652C19.3637 77.3652 2.63474 60.6362 2.63474 40C2.63474 19.3637 19.3637 2.63474 40 2.63474C60.6362 2.63474 77.3652 19.3637 77.3652 40ZM40 78.9433C61.5078 78.9433 78.9433 61.5078 78.9433 40C78.9433 18.4922 61.5078 1.05664 40 1.05664C18.4922 1.05664 1.05664 18.4922 1.05664 40C1.05664 61.5078 18.4922 78.9433 40 78.9433Z" fill="#159822" stroke="#159822"/>
<path d="M29.2668 32.8794H27.7334V34.4128H29.2668V32.8794Z" fill="#159822"/>
<path d="M36.9338 32.8794H35.4004V34.4128H36.9338V32.8794Z" fill="#159822"/>
<path d="M62.3422 41.3206L59.3468 40.8928C59.2044 40.4739 59.0362 40.0642 58.8431 39.666L60.6555 37.2494C60.7662 37.1018 60.82 36.9191 60.8069 36.7351C60.7938 36.551 60.7147 36.3778 60.5842 36.2473L57.3313 32.9942C57.2063 32.8701 57.042 32.7934 56.8667 32.7773V25.397C57.584 24.8227 58.1631 24.0945 58.5612 23.2663C58.9593 22.4381 59.1662 21.531 59.1667 20.612C59.1737 19.4501 58.8471 18.3105 58.2256 17.3287C57.6041 16.347 56.7139 15.5642 55.6607 15.0734C55.5439 15.0182 55.415 14.9935 55.286 15.0015C55.1571 15.0094 55.0322 15.0499 54.9231 15.119C54.8139 15.1882 54.724 15.2838 54.6617 15.397C54.5994 15.5102 54.5667 15.6373 54.5667 15.7665V20.06L53.0333 20.5714L51.5 20.06V15.7665C51.4995 15.6376 51.4664 15.5108 51.4039 15.398C51.3414 15.2853 51.2514 15.1901 51.1423 15.1213C51.0333 15.0525 50.9086 15.0123 50.7799 15.0045C50.6512 14.9966 50.5226 15.0214 50.406 15.0765C49.3533 15.567 48.4634 16.3493 47.8419 17.3305C47.2205 18.3117 46.8936 19.4506 46.9 20.612C46.9005 21.531 47.1074 22.4381 47.5055 23.2663C47.9036 24.0945 48.4827 24.8227 49.2 25.397V30.5791H46.9C46.7155 30.5791 46.5372 30.6456 46.3978 30.7664C46.2584 30.8873 46.1672 31.0543 46.141 31.237L45.645 34.7093L47.163 34.9263L47.5647 32.1125H50.8353L51.237 34.9263C51.258 35.0721 51.3204 35.2088 51.417 35.32C51.5135 35.4312 51.64 35.5123 51.7814 35.5535C52.4204 35.7381 53.0374 35.9918 53.6214 36.3102C53.7506 36.381 53.8975 36.4132 54.0444 36.4027C54.1914 36.3922 54.3323 36.3396 54.4501 36.2512L56.7202 34.5491L59.0325 36.8615L57.3267 39.1316C57.2382 39.2495 57.1856 39.3904 57.1752 39.5374C57.1647 39.6843 57.1968 39.8312 57.2676 39.9605C57.586 40.5445 57.8397 41.1615 58.0243 41.8005C58.0656 41.9419 58.1466 42.0684 58.2578 42.165C58.369 42.2615 58.5057 42.324 58.6515 42.3449L61.4651 42.7466V46.0174L58.6515 46.4191C58.5057 46.44 58.369 46.5025 58.2578 46.599C58.1466 46.6956 58.0656 46.8221 58.0243 46.9635C57.8397 47.6025 57.586 48.2195 57.2676 48.8036C57.1968 48.9328 57.1647 49.0797 57.1752 49.2266C57.1856 49.3736 57.2382 49.5145 57.3267 49.6324L59.0287 51.9025L56.7164 54.2149L54.4478 52.5067C54.33 52.4183 54.1891 52.3657 54.0421 52.3552C53.8952 52.3447 53.7483 52.3768 53.6191 52.4477C53.0351 52.766 52.4181 53.0198 51.7791 53.2044C51.6377 53.2456 51.5112 53.3267 51.4146 53.4379C51.3181 53.5491 51.2557 53.6858 51.2347 53.8316L50.8353 56.6469H47.6667V53.4045C47.6661 52.5945 47.55 51.7888 47.3217 51.0116C48.782 51.4392 50.3419 51.3781 51.7643 50.8377C53.1867 50.2973 54.3938 49.3072 55.2019 48.0179C56.01 46.7286 56.375 45.2106 56.2413 43.6949C56.1077 42.1791 55.4827 40.7484 54.4615 39.6204C53.4402 38.4925 52.0785 37.7288 50.5835 37.4457C49.0885 37.1626 47.5419 37.3754 46.179 38.0519C44.816 38.7284 43.7113 39.8315 43.0327 41.1934C42.3541 42.5554 42.1388 44.1017 42.4196 45.5972C42.4012 45.5896 42.3836 45.5804 42.3652 45.5735L36.1667 43.0939V41.9155C37.1912 41.3914 38.0986 40.6647 38.8339 39.7795H40.7667C41.3767 39.7795 41.9617 39.5372 42.393 39.1058C42.8244 38.6745 43.0667 38.0894 43.0667 37.4794V35.8049C43.5136 35.6469 43.9007 35.3547 44.1752 34.9682C44.4497 34.5818 44.5981 34.1199 44.6 33.6459V31.3458C44.5981 30.8718 44.4497 30.41 44.1752 30.0235C43.9007 29.637 43.5136 29.3448 43.0667 29.1868V28.279C43.0667 25.4323 41.9359 22.7021 39.923 20.6891C37.9101 18.6761 35.18 17.5452 32.3334 17.5452C29.4867 17.5452 26.7566 18.6761 24.7438 20.6891C22.7309 22.7021 21.6 25.4323 21.6 28.279V29.1868C21.1531 29.3448 20.766 29.637 20.4915 30.0235C20.217 30.41 20.0687 30.8718 20.0667 31.3458V33.6459C20.0667 34.2559 20.309 34.841 20.7404 35.2723C21.1717 35.7037 21.7567 35.946 22.3667 35.946H23.9C23.9491 35.946 23.9966 35.9383 24.0449 35.9353C24.2807 37.2065 24.8049 38.4066 25.5772 39.4434C26.3496 40.4802 27.3495 41.3259 28.5 41.9155V43.0939L22.3015 45.5735C20.7334 46.195 19.3888 47.2745 18.4432 48.6714C17.4975 50.0682 16.9946 51.7176 17 53.4045V60.4804C17 60.6837 17.0808 60.8787 17.2246 61.0225C17.3684 61.1663 17.5634 61.2471 17.7667 61.2471H46.9C47.1033 61.2471 47.2984 61.1663 47.4421 61.0225C47.5859 60.8787 47.6667 60.6837 47.6667 60.4804V58.1803H51.5C51.6845 58.1803 51.8628 58.1138 52.0022 57.993C52.1416 57.8721 52.2328 57.7051 52.259 57.5224L52.6868 54.527C53.1057 54.3845 53.5154 54.2163 53.9135 54.0232L56.33 55.8357C56.4776 55.9464 56.6603 56.0001 56.8443 55.987C57.0284 55.9739 57.2016 55.8949 57.332 55.7644L60.585 52.5113C60.7155 52.3808 60.7945 52.2076 60.8076 52.0236C60.8207 51.8395 60.767 51.6569 60.6563 51.5092L58.8439 49.0926C59.0369 48.6945 59.2051 48.2848 59.3476 47.8659L62.343 47.4381C62.5253 47.4117 62.6921 47.3206 62.8127 47.1813C62.9334 47.0421 62.9999 46.864 63 46.6798V42.0796C63 41.8951 62.9335 41.7168 62.8127 41.5774C62.6919 41.4379 62.5248 41.3468 62.3422 41.3206ZM53.9089 34.7362C53.8728 34.7185 53.8322 34.707 53.7962 34.6902V25.2122H52.2667V31.2922L52.259 31.237C52.2328 31.0543 52.1416 30.8873 52.0022 30.7664C51.8628 30.6456 51.6845 30.5791 51.5 30.5791H50.7333V25.0129C50.7334 24.8892 50.7034 24.7674 50.6462 24.6578C50.5889 24.5482 50.506 24.454 50.4044 24.3834C49.8345 23.9866 49.3619 23.466 49.0218 22.8604C48.6818 22.2549 48.4833 21.5803 48.4412 20.8871C48.3991 20.1939 48.5145 19.5002 48.7786 18.858C49.0428 18.2157 49.449 17.6416 49.9667 17.1788V20.612C49.9666 20.773 50.0173 20.9299 50.1114 21.0605C50.2055 21.1911 50.3384 21.2888 50.4911 21.3396L52.7911 22.1063C52.9483 22.1587 53.1183 22.1587 53.2756 22.1063L55.5756 21.3396C55.7283 21.2888 55.8612 21.1911 55.9553 21.0605C56.0494 20.9299 56.1 20.773 56.1 20.612V17.1788C56.6181 17.6416 57.0246 18.2159 57.2891 18.8583C57.5536 19.5008 57.669 20.1948 57.6269 20.8883C57.5848 21.5818 57.3861 22.2567 57.0459 22.8625C56.7056 23.4682 56.2326 23.989 55.6622 24.3857C55.561 24.4561 55.4783 24.5499 55.421 24.6591C55.3638 24.7682 55.3337 24.8896 55.3333 25.0129V33.6712L53.9089 34.7362ZM43.8334 44.3797C43.8249 43.1809 44.2152 42.0133 44.9429 41.0606C45.6706 40.1079 46.6944 39.4241 47.8531 39.1169C49.0119 38.8097 50.2399 38.8964 51.344 39.3635C52.448 39.8306 53.3655 40.6514 53.9521 41.697C54.5386 42.7425 54.7609 43.9534 54.5841 45.1391C54.4072 46.3249 53.8412 47.4181 52.975 48.247C52.1089 49.0758 50.9918 49.5932 49.7995 49.7177C48.6072 49.8421 47.4073 49.5667 46.3886 48.9347C45.8587 48.0856 45.1807 47.3385 44.3869 46.7289C44.0221 45.9995 43.8326 45.1952 43.8334 44.3797ZM40.7667 38.2461H39.836C40.2096 37.5184 40.4743 36.7399 40.6218 35.9353C40.6701 35.9353 40.7176 35.946 40.7667 35.946H41.5334V37.4794C41.5334 37.6828 41.4526 37.8778 41.3088 38.0216C41.165 38.1653 40.97 38.2461 40.7667 38.2461ZM39.2334 29.8124C38.8764 29.8115 38.5246 29.728 38.2054 29.5684C37.8861 29.4088 37.6082 29.1774 37.3934 28.8924L36.0134 27.0523C35.9517 26.9702 35.8743 26.9012 35.7855 26.8496C35.6967 26.798 35.5985 26.7647 35.4966 26.7518C35.3947 26.7393 35.2914 26.7471 35.1925 26.7749C35.0937 26.8027 35.0013 26.8498 34.9209 26.9135L32.3479 28.9691C31.6691 29.5123 30.8262 29.8096 29.9567 29.8124H25.4334V29.0457C25.4334 27.2157 26.1603 25.4605 27.4543 24.1665C28.7483 22.8724 30.5034 22.1454 32.3334 22.1454C34.1634 22.1454 35.9184 22.8724 37.2124 24.1665C38.5064 25.4605 39.2334 27.2157 39.2334 29.0457V29.8124ZM43.0667 33.6459C43.0667 33.8493 42.9859 34.0443 42.8421 34.1881C42.6984 34.3318 42.5034 34.4126 42.3 34.4126H40.7667V30.5791H42.3C42.5034 30.5791 42.6984 30.6599 42.8421 30.8037C42.9859 30.9475 43.0667 31.1425 43.0667 31.3458V33.6459ZM32.3334 19.0786C34.7725 19.0813 37.1111 20.0515 38.8358 21.7763C40.5606 23.5011 41.5307 25.8397 41.5334 28.279V29.0457H40.7667C40.7667 26.809 39.8782 24.6638 38.2966 23.0822C36.7151 21.5006 34.57 20.612 32.3334 20.612C30.0967 20.612 27.9517 21.5006 26.3701 23.0822C24.7885 24.6638 23.9 26.809 23.9 29.0457H23.1334V28.279C23.136 25.8397 24.1061 23.5011 25.8309 21.7763C27.5557 20.0515 29.8942 19.0813 32.3334 19.0786ZM22.3667 34.4126C22.1634 34.4126 21.9684 34.3318 21.8246 34.1881C21.6808 34.0443 21.6 33.8493 21.6 33.6459V31.3458C21.6 31.1425 21.6808 30.9475 21.8246 30.8037C21.9684 30.6599 22.1634 30.5791 22.3667 30.5791H23.9V34.4126H22.3667ZM25.4334 34.4126V31.3458H29.9567C31.1748 31.3442 32.3565 30.9296 33.3086 30.1697L35.2643 28.6049L36.1667 29.8124C36.5248 30.2874 36.988 30.6731 37.52 30.9391C38.0521 31.2051 38.6385 31.3443 39.2334 31.3458V34.4126C39.2346 35.7781 38.8283 37.1129 38.0665 38.2461H32.3334V39.7795H36.6604C35.648 40.5982 34.4243 41.1133 33.1312 41.2654C31.8381 41.4174 30.5284 41.2 29.3537 40.6385C28.1789 40.0769 27.1873 39.1941 26.4935 38.0923C25.7997 36.9905 25.4321 35.7147 25.4334 34.4126ZM32.3334 42.8463C33.1114 42.8444 33.8855 42.7345 34.6334 42.5197V43.613C34.6334 44.223 34.391 44.8081 33.9597 45.2394C33.5284 45.6708 32.9434 45.9131 32.3334 45.9131C31.7234 45.9131 31.1384 45.6708 30.707 45.2394C30.2757 44.8081 30.0334 44.223 30.0334 43.613V42.5197C30.7812 42.7345 31.5553 42.8444 32.3334 42.8463ZM46.1333 59.7137H41.5334V51.28H40V59.7137H24.6667V51.28H23.1334V59.7137H18.5334V53.4045C18.5289 52.0243 18.9404 50.6748 19.7141 49.5318C20.4879 48.3889 21.5881 47.5057 22.8712 46.9972L28.6695 44.6779C28.8959 45.4752 29.3761 46.1768 30.0373 46.6764C30.6985 47.176 31.5046 47.4463 32.3334 47.4463C33.1621 47.4463 33.9682 47.176 34.6294 46.6764C35.2906 46.1768 35.7709 45.4752 35.9973 44.6779L41.7956 46.9972C43.0787 47.5057 44.1788 48.3889 44.9526 49.5318C45.7263 50.6748 46.1378 52.0243 46.1333 53.4045V59.7137Z" fill="#159822"/>
<path d="M49.9669 33.646H48.4336V35.1794H49.9669V33.646Z" fill="#159822"/>
<path d="M49.9669 53.5801H48.4336V55.1135H49.9669V53.5801Z" fill="#159822"/>
<path d="M56.2464 50.3434L55.1621 51.4277L56.2464 52.512L57.3306 51.4277L56.2464 50.3434Z" fill="#159822"/>
<path d="M59.9327 43.6128H58.3994V45.1462H59.9327V43.6128Z" fill="#159822"/>
<path d="M56.2473 36.2478L55.1631 37.332L56.2473 38.4163L57.3316 37.332L56.2473 36.2478Z" fill="#159822"/>
</svg>
