<svg width="80" height="80" viewBox="0 0 80 80" fill="none" xmlns="http://www.w3.org/2000/svg">
<circle cx="40.0002" cy="40.0002" r="37.9436" fill="white" stroke="#D1D1D1"/>
<circle cx="40.0002" cy="40.0002" r="33.3186" stroke="#D1D1D1"/>
<path d="M77.3652 40C77.3652 60.6362 60.6362 77.3652 40 77.3652C19.3637 77.3652 2.63474 60.6362 2.63474 40C2.63474 19.3637 19.3637 2.63474 40 2.63474C60.6362 2.63474 77.3652 19.3637 77.3652 40ZM40 78.9433C61.5078 78.9433 78.9433 61.5078 78.9433 40C78.9433 18.4922 61.5078 1.05664 40 1.05664C18.4922 1.05664 1.05664 18.4922 1.05664 40C1.05664 61.5078 18.4922 78.9433 40 78.9433Z" fill="#159822" stroke="#159822"/>
<path d="M38.1463 48.4152C38.497 48.0611 38.497 47.488 38.1463 47.1339C37.7952 46.7809 37.2265 46.7809 36.8751 47.1339C36.5247 47.488 36.5247 48.0611 36.8751 48.4152C37.2265 48.7683 37.7952 48.7683 38.1463 48.4152Z" fill="#159822"/>
<path d="M27.3489 63.0664C27.6971 63.4202 28.2641 63.424 28.6169 63.0738L32.9729 58.7495C33.7129 58.0037 33.9379 56.8996 33.6125 55.9399L34.5495 55.0293C35.054 54.5383 35.7182 54.2677 36.4203 54.2677H48.3645C50.4835 54.2677 52.4863 53.4477 54.0046 51.9587C54.0671 51.8975 53.5303 52.5346 62.1531 42.1496C63.432 40.6249 63.2407 38.3354 61.7262 37.0452C60.2212 35.7671 57.9667 35.9507 56.6843 37.4492L51.3825 42.9403C50.7131 42.11 49.6922 41.5925 48.5891 41.5925H38.5702C37.1445 40.9914 35.6318 40.6872 34.071 40.6872C29.7445 40.6872 25.9667 42.7008 23.9394 46.4761C23.0852 46.313 22.1844 46.5734 21.5363 47.2264L17.2622 51.5462C16.9132 51.8989 16.9125 52.4695 17.2608 52.8233L27.3489 63.0664ZM34.0706 42.4977C35.4468 42.4977 36.7773 42.7768 38.0261 43.3273C38.1398 43.3775 38.2623 43.4034 38.3862 43.4034H48.5891C49.5633 43.4034 50.3862 44.2039 50.3862 45.2139C50.3862 46.2126 49.5802 47.0248 48.5891 47.0248H41.2586C40.7626 47.0248 40.3603 47.4302 40.3603 47.9301C40.3603 48.4303 40.7626 48.8353 41.2586 48.8353H48.5891C50.5709 48.8353 52.183 47.2109 52.183 45.2139C52.183 45.0547 52.1717 44.8969 52.1514 44.7406C57.28 39.4282 58.0032 38.6817 58.0341 38.6446C58.6744 37.8829 59.8112 37.7864 60.5674 38.4288C61.3243 39.0737 61.4201 40.2185 60.778 40.9843L52.7194 50.6922C51.5426 51.8306 49.9976 52.4571 48.3645 52.4571H36.4203C35.2499 52.4571 34.1419 52.9082 33.3015 53.7264L32.5379 54.469L25.4991 47.3764C27.1442 44.2665 30.2311 42.4977 34.0706 42.4977ZM22.8079 48.506C23.1042 48.2074 23.5592 48.1536 23.9204 48.3786C24.0759 48.4741 23.6294 48.0645 31.7024 56.1882C32.0615 56.5501 32.0422 57.1268 31.7073 57.4643L27.9938 61.1508L19.1656 52.1869L22.8079 48.506Z" fill="#159822"/>
<path d="M29.7842 26.9591C29.7842 32.4505 34.2177 36.9185 39.6673 36.9185C45.1168 36.9185 49.5504 32.4505 49.5504 26.9591C49.5504 21.4677 45.1168 17 39.6673 17C34.2177 17 29.7842 21.4677 29.7842 26.9591ZM47.7536 26.9591C47.7536 31.4522 44.1261 35.1076 39.6673 35.1076C35.2084 35.1076 31.5809 31.4522 31.5809 26.9591C31.5809 22.4663 35.2084 18.8109 39.6673 18.8109C44.1261 18.8109 47.7536 22.4663 47.7536 26.9591Z" fill="#159822"/>
<path d="M41.7401 24.9337C41.5905 25.0938 41.3851 25.2271 41.1204 25.3313H36.3711C36.2361 25.3313 36.1184 25.3777 36.0252 25.4716L36.0251 25.4715L36.0207 25.4765C35.9374 25.5724 35.9 25.6944 35.9 25.8329C35.9 25.9644 35.9386 26.0832 36.017 26.1848L36.0164 26.1852L36.0252 26.1941C36.1184 26.288 36.2361 26.3344 36.3711 26.3344H43.4073C43.5419 26.3344 43.6579 26.288 43.7434 26.1898C43.8328 26.0885 43.8784 25.968 43.8784 25.8329C43.8784 25.692 43.8349 25.5691 43.7417 25.474C43.6563 25.3771 43.5411 25.3313 43.4073 25.3313H42.7926C42.9282 25.1914 43.0391 25.0421 43.1244 24.8831L43.1249 24.8821C43.3156 24.517 43.4111 24.1272 43.4111 23.7142C43.4111 23.1511 43.264 22.6552 42.967 22.2305C42.6716 21.808 42.2628 21.4832 41.7445 21.2551C41.2346 21.0175 40.6521 20.9 39.9991 20.9C39.4754 20.9 38.9957 20.9848 38.5612 21.156C38.1395 21.3166 37.7678 21.5344 37.4472 21.8099C37.1287 22.0742 36.8654 22.3678 36.658 22.6908L36.6579 22.6908L36.6571 22.6921C36.5554 22.8561 36.5143 23.0248 36.5478 23.1936L36.5476 23.1936L36.5492 23.1997C36.593 23.3649 36.6929 23.4926 36.8434 23.5793L36.8432 23.5796L36.8507 23.5831C37.0099 23.658 37.1737 23.6698 37.3365 23.6154C37.5044 23.5623 37.634 23.4601 37.7201 23.3105C37.8617 23.106 38.0299 22.9143 38.2251 22.7355L38.2253 22.7353C38.4252 22.5514 38.6701 22.4055 38.9616 22.2986C39.2507 22.1927 39.6008 22.1339 40.014 22.1247C40.6764 22.1249 41.1927 22.2783 41.5731 22.5745L41.573 22.5745L41.5751 22.576C41.9577 22.8587 42.1529 23.2741 42.1529 23.8388C42.1529 24.2771 42.0146 24.6398 41.7401 24.9337ZM36.3711 28.0793H36.9176C36.7927 28.1962 36.6945 28.3285 36.6243 28.4764L36.6243 28.4764L36.6235 28.4782C36.5254 28.6957 36.4772 28.9361 36.4772 29.1979C36.4772 29.8238 36.628 30.3656 36.9341 30.8186C37.2388 31.2695 37.6618 31.6135 38.1996 31.8511L38.1996 31.8512L38.2016 31.852C38.7476 32.0796 39.3795 32.192 40.0953 32.192C40.9987 32.192 41.7738 31.9948 42.4157 31.5953L42.4166 31.5948C43.0551 31.1879 43.5222 30.6562 43.8147 30.0002L43.8151 29.9993C43.8887 29.8298 43.8928 29.6637 43.8123 29.5121C43.7323 29.3519 43.5861 29.2499 43.3927 29.1984C43.2386 29.1543 43.0849 29.1722 42.9363 29.247L42.9363 29.247L42.9336 29.2484C42.7952 29.3235 42.6895 29.4362 42.6169 29.5827L42.6165 29.5834C42.415 29.9982 42.0995 30.3349 41.666 30.5935C41.2449 30.8409 40.7275 30.9673 40.1091 30.9673C39.3528 30.9673 38.7825 30.8039 38.385 30.4907C37.99 30.1703 37.7904 29.7296 37.7904 29.1563C37.7904 28.8697 37.8633 28.6165 38.0079 28.3937C38.0883 28.2698 38.1968 28.1646 38.3356 28.0793H43.4073C43.541 28.0793 43.6563 28.0334 43.7417 27.9366C43.8349 27.8414 43.8784 27.7185 43.8784 27.5777C43.8784 27.4445 43.834 27.3279 43.7437 27.2347C43.6599 27.129 43.5444 27.0761 43.4073 27.0761H36.3711C36.2322 27.0761 36.1133 27.1301 36.0212 27.2346L36.0212 27.2346L36.0207 27.2351C35.9387 27.3296 35.9 27.4462 35.9 27.5777C35.9 27.7161 35.9374 27.8381 36.0207 27.934L36.0205 27.9342L36.0252 27.9389C36.1184 28.0328 36.2361 28.0793 36.3711 28.0793Z" fill="#159822" stroke="#159822" stroke-width="0.2"/>
</svg>
