<svg width="80" height="80" viewBox="0 0 80 80" fill="none" xmlns="http://www.w3.org/2000/svg">
<circle cx="40.0002" cy="40" r="37.9436" fill="white" stroke="#D1D1D1"/>
<circle cx="40.0002" cy="40" r="33.3186" stroke="#D1D1D1"/>
<path d="M77.3652 40C77.3652 60.6362 60.6362 77.3652 40 77.3652C19.3637 77.3652 2.63474 60.6362 2.63474 40C2.63474 19.3637 19.3637 2.63474 40 2.63474C60.6362 2.63474 77.3652 19.3637 77.3652 40ZM40 78.9433C61.5078 78.9433 78.9433 61.5078 78.9433 40C78.9433 18.4922 61.5078 1.05664 40 1.05664C18.4922 1.05664 1.05664 18.4922 1.05664 40C1.05664 61.5078 18.4922 78.9433 40 78.9433Z" fill="#159822" stroke="#159822"/>
<path d="M35.8118 47.9089L36.0384 47.6823C36.4397 47.8874 36.8571 48.0604 37.2871 48.2001V48.5197C37.2871 49.3132 37.9326 49.9587 38.7261 49.9587H41.1811C41.9745 49.9587 42.6201 49.3132 42.6201 48.5197V48.1999C43.0485 48.0605 43.4658 47.8874 43.8684 47.6819L44.0954 47.9089C44.6532 48.4668 45.5641 48.4679 46.1285 47.9089L47.8661 46.1712C48.4238 45.6134 48.4249 44.7025 47.8661 44.1382L47.6393 43.9116C47.8443 43.5104 48.0175 43.0929 48.1571 42.6628H48.4768C49.2689 42.6628 49.9131 42.0173 49.9131 41.2238V38.7689C49.9131 37.9754 49.2688 37.3299 48.4768 37.3299H48.157C48.0176 36.9014 47.8443 36.4841 47.639 36.0816L47.8661 35.8544C48.4238 35.2965 48.4249 34.3856 47.8656 33.8211L46.1285 32.0865C45.8568 31.8148 45.4956 31.6654 45.111 31.6654C45.1098 31.6654 45.1087 31.6654 45.1076 31.6654C44.7231 31.6663 44.3627 31.8167 44.0965 32.0854L43.8695 32.3114C43.4665 32.1057 43.0489 31.9324 42.6201 31.7928V31.473C42.6201 30.681 41.9746 30.0366 41.1811 30.0366H38.7261C37.9327 30.0366 37.2871 30.681 37.2871 31.473V31.7926C36.8568 31.9324 36.4389 32.1057 36.0373 32.311L35.814 32.0887C35.5434 31.8157 35.1816 31.6653 34.7952 31.6653C34.4088 31.6653 34.047 31.8157 33.7792 32.086L32.0387 33.8237C31.4824 34.3855 31.4834 35.2964 32.0411 35.8544L32.2682 36.0815C32.0628 36.4841 31.8896 36.9013 31.7502 37.3298H31.4304C30.6384 37.3298 29.9941 37.9753 29.9941 38.7688V41.2238C29.9941 42.0172 30.6385 42.6627 31.4304 42.6627H31.75C31.8897 43.0928 32.0628 43.5102 32.2678 43.9115L32.0387 44.1406C31.4824 44.7024 31.4834 45.6133 32.0411 46.1712L33.7787 47.9088C34.3365 48.4668 35.2476 48.4679 35.8118 47.9089ZM33.0354 45.1324L33.6359 44.5319C33.8634 44.3044 33.9073 43.9514 33.7427 43.6751C33.3931 43.0883 33.1294 42.4527 32.9591 41.7859C32.8796 41.4746 32.5992 41.2568 32.278 41.2568H31.4305C31.4161 41.2568 31.4002 41.2432 31.4002 41.2238V38.7689C31.4002 38.7511 31.4169 38.7359 31.4305 38.7359H32.278C32.5993 38.7359 32.8797 38.5181 32.9591 38.2068C33.1284 37.5444 33.3921 36.9083 33.7434 36.3165C33.9073 36.0401 33.8631 35.6879 33.6359 35.4607L33.0355 34.8603C33.0257 34.8505 33.0252 34.8259 33.035 34.8158L34.7753 33.0782C34.7845 33.0688 34.8028 33.0656 34.8187 33.0816L35.4192 33.6795C35.647 33.9061 35.9993 33.9496 36.275 33.7852C36.8619 33.4355 37.4976 33.1718 38.1642 33.0015C38.4754 32.9221 38.6932 32.6417 38.6932 32.3204V31.473C38.6932 31.458 38.7099 31.4426 38.7262 31.4426H41.1812C41.1975 31.4426 41.2142 31.458 41.2142 31.473V32.3204C41.2142 32.6417 41.4319 32.9221 41.7431 33.0015C42.4055 33.1707 43.0415 33.4346 43.6335 33.7858C43.9092 33.9495 44.2608 33.9056 44.4882 33.6795L45.0921 33.0782C45.0941 33.0762 45.0989 33.0712 45.111 33.0712H45.1111C45.1251 33.0712 45.1319 33.0779 45.1349 33.0808L46.8697 34.813C46.8824 34.8259 46.8817 34.8504 46.872 34.8601L46.2715 35.4606C46.0443 35.6878 46.0001 36.0401 46.1641 36.3164C46.5153 36.9083 46.7791 37.5442 46.9484 38.2067C47.0279 38.518 47.3083 38.7358 47.6295 38.7358H48.477C48.4907 38.7358 48.5073 38.751 48.5073 38.7688V41.2238C48.5073 41.2432 48.4913 41.2567 48.477 41.2567H47.6295C47.3082 41.2567 47.0278 41.4745 46.9484 41.7858C46.7781 42.4526 46.5144 43.0882 46.1647 43.675C46 43.9514 46.0441 44.3043 46.2716 44.5318L46.8697 45.1299C46.8824 45.1427 46.8817 45.1673 46.872 45.177L45.1368 46.9122C45.1238 46.9253 45.0996 46.9243 45.0899 46.9146L44.4894 46.3141C44.2621 46.0869 43.9098 46.0426 43.6335 46.2067C43.0416 46.5579 42.4056 46.8218 41.7433 46.991C41.432 47.0705 41.2143 47.3508 41.2143 47.6721V48.5196C41.2143 48.5354 41.197 48.5526 41.1813 48.5526H38.7263C38.7105 48.5526 38.6933 48.5354 38.6933 48.5196V47.6721C38.6933 47.3508 38.4755 47.0704 38.1642 46.991C37.4977 46.8207 36.862 46.5571 36.2751 46.2073C36.1634 46.1407 36.0391 46.1082 35.9156 46.1082C35.7337 46.1082 35.5537 46.1786 35.4182 46.3142L34.8201 46.9123C34.807 46.9253 34.7829 46.9244 34.7732 46.9147L33.0354 45.1772C33.0257 45.1675 33.0251 45.1429 33.0354 45.1324Z" fill="#159822"/>
<path d="M36.0888 41.0597L38.4296 43.1534C38.5588 43.2691 38.7259 43.3325 38.8983 43.3325C38.9146 43.3325 38.9309 43.3319 38.9472 43.3308C39.1365 43.3176 39.3126 43.2282 39.4352 43.0832L43.8828 37.8198C44.1334 37.5233 44.0961 37.0798 43.7995 36.8291C43.503 36.5786 43.0594 36.6158 42.8088 36.9124L38.8279 41.6234L37.0261 40.0118C36.7368 39.7529 36.2922 39.7778 36.0335 40.0671C35.7747 40.3565 35.7994 40.8009 36.0888 41.0597Z" fill="#159822"/>
<path d="M30.4782 52.6253C26.4759 49.605 24.1814 45.0038 24.1814 39.9964C24.1814 32.3049 29.7353 25.7472 37.226 24.4251V26.1432C37.226 26.1475 37.226 26.1519 37.2261 26.1563C37.2396 26.8793 37.5919 27.4928 38.1687 27.7975C38.7318 28.095 39.4031 28.0528 39.9644 27.685C39.9747 27.6782 39.9849 27.6711 39.9948 27.6638L45.6864 23.4857C46.2629 23.1273 46.5926 22.586 46.5926 21.9958C46.5926 21.4054 46.2626 20.864 45.6858 20.5055L39.9945 16.3302C39.9846 16.3229 39.9745 16.3159 39.9642 16.3091C39.4032 15.9412 38.7318 15.8992 38.1685 16.1967C37.5918 16.5013 37.2395 17.1149 37.226 17.8379C37.2259 17.8422 37.2259 17.8466 37.2259 17.8509V19.1699C32.9322 19.7343 28.985 21.58 25.7762 24.531C25.4904 24.7939 25.4718 25.2386 25.7347 25.5244C25.9975 25.8101 26.442 25.8287 26.728 25.5659C29.8685 22.6777 33.7662 20.9242 37.9998 20.495C38.3588 20.4587 38.632 20.1564 38.632 19.7957V17.8583C38.637 17.6545 38.7073 17.5023 38.8253 17.4399C38.9273 17.386 39.0562 17.3996 39.181 17.477L44.8783 21.6566C44.8954 21.6692 44.913 21.6809 44.9312 21.6919C45.0888 21.7868 45.1866 21.9031 45.1866 21.9957C45.1866 22.0882 45.0886 22.2046 44.9312 22.2995C44.9128 22.3107 44.8948 22.3226 44.8775 22.3353L39.1809 26.5171C39.056 26.5945 38.9272 26.6081 38.8253 26.5542C38.7072 26.4918 38.6369 26.3395 38.632 26.1357V23.6085C38.632 23.4068 38.5454 23.2149 38.3942 23.0815C38.2432 22.9481 38.0423 22.8856 37.8419 22.9109C29.2526 23.9839 22.7754 31.3291 22.7754 39.9963C22.7754 42.7495 23.406 45.3803 24.6497 47.8156C25.8353 50.1371 27.5662 52.1946 29.6555 53.7658C29.6714 53.7777 29.6877 53.7889 29.7044 53.7993C30.3269 54.19 30.6644 54.7199 30.6301 55.2529C30.6054 55.637 30.382 55.9717 30.0471 56.1262C29.5693 56.3465 28.9197 56.1919 28.2647 55.7016C23.4749 52.1191 20.6109 46.6455 20.406 40.6831V39.3093C20.5473 35.169 21.9651 31.2517 24.5064 27.9797C24.7446 27.6731 24.6891 27.2315 24.3825 26.9933C24.076 26.7552 23.6342 26.8105 23.3961 27.1173C20.6696 30.6278 19.1495 34.8315 19.0004 39.2739C19.0001 39.2817 19 39.2896 19 39.2974V40.695C19 40.7028 19.0001 40.7108 19.0004 40.7187C19.2164 47.1144 22.2862 52.9859 27.4225 56.8275C28.1316 57.3579 28.8792 57.6307 29.5809 57.6307C29.9494 57.6307 30.3052 57.5555 30.636 57.4028C31.4402 57.032 31.9756 56.2426 32.0333 55.3429C32.101 54.2877 31.5346 53.2987 30.4782 52.6253Z" fill="#159822"/>
<path d="M58.7942 30.6172C57.4005 27.8289 55.3609 25.3405 52.8949 23.4197C51.9105 22.5996 50.7894 22.3432 49.8176 22.7167C48.973 23.0413 48.3698 23.8017 48.2434 24.7011C48.1051 25.6857 48.5469 26.6434 49.458 27.3303C53.4915 30.3469 55.8048 34.9634 55.8048 39.9962C55.8048 47.6902 50.2508 54.2481 42.7601 55.5679V53.8494C42.7601 53.8451 42.7601 53.8407 42.76 53.8364C42.7466 53.1156 42.395 52.5032 41.8195 52.1983C41.2567 51.9001 40.5853 51.9406 40.0233 52.3067C40.0125 52.3138 40.0019 52.3212 39.9913 52.3288L34.2999 56.5069C33.7234 56.8653 33.3936 57.4067 33.3936 57.9969C33.3936 58.5871 33.7234 59.1283 34.2998 59.4868L39.9913 63.6649C40.0017 63.6726 40.0125 63.68 40.0233 63.6871C40.3357 63.8907 40.6819 63.9936 41.0246 63.9935C41.2982 63.9935 41.5696 63.9279 41.8195 63.7955C42.395 63.4904 42.7467 62.8781 42.76 62.1574C42.7601 62.1531 42.7601 62.1487 42.7601 62.1444V60.8228C46.8983 60.2791 50.7328 58.5349 53.8854 55.7557C54.1765 55.4989 54.2046 55.0547 53.9478 54.7635C53.6912 54.4722 53.2469 54.4442 52.9556 54.701C49.8649 57.4258 46.0718 59.0844 41.9864 59.4974C41.6274 59.5337 41.3541 59.836 41.3541 60.1968V62.1367C41.3492 62.3391 41.279 62.4907 41.1611 62.5532C41.0587 62.6074 40.9293 62.5944 40.8045 62.5176L35.1086 58.3364C35.0912 58.3236 35.0733 58.3117 35.055 58.3006C34.8974 58.2058 34.7996 58.0895 34.7996 57.9968C34.7996 57.9043 34.8976 57.7879 35.055 57.693C35.0734 57.6819 35.0914 57.67 35.1087 57.6572L40.8044 53.4761C40.9294 53.3993 41.0588 53.3863 41.1611 53.4405C41.2791 53.503 41.3493 53.6547 41.3541 53.857V56.3841C41.3541 56.5857 41.4407 56.7775 41.5918 56.911C41.7429 57.0444 41.9435 57.1066 42.1441 57.0817C50.7335 56.0115 57.2107 48.6663 57.2107 39.9961C57.2107 37.2366 56.5775 34.6004 55.3285 32.1607C54.1371 29.8332 52.3981 27.7735 50.3022 26.206C49.8062 25.832 49.5694 25.367 49.6355 24.8966C49.6909 24.5028 49.9538 24.1704 50.3218 24.0289C50.813 23.8402 51.4098 24.0094 52.002 24.5057C52.0085 24.5112 52.0151 24.5165 52.0218 24.5217C56.8337 28.2653 59.5935 33.9055 59.5935 39.9961C59.5935 44.5275 58.0124 48.9452 55.1413 52.4356C54.8946 52.7354 54.9377 53.1784 55.2375 53.4251C55.5374 53.6717 55.9804 53.6287 56.227 53.3288C59.3046 49.5874 60.9995 44.8525 60.9995 39.9961C60.9996 36.7002 60.2576 33.5446 58.7942 30.6172Z" fill="#159822"/>
</svg>
