<svg width="135" height="162" viewBox="0 0 135 162" fill="none" xmlns="http://www.w3.org/2000/svg">
<circle cx="67.5" cy="67.5" r="58" stroke="#D1D1D1"/>
<circle cx="67.5" cy="154.5" r="7.5" fill="#159822"/>
<path d="M132.5 67.5C132.5 103.399 103.399 132.5 67.5 132.5C31.6015 132.5 2.5 103.399 2.5 67.5C2.5 31.6015 31.6015 2.5 67.5 2.5C103.399 2.5 132.5 31.6015 132.5 67.5ZM67.5 134.5C104.503 134.5 134.5 104.503 134.5 67.5C134.5 30.4969 104.503 0.5 67.5 0.5C30.4969 0.5 0.5 30.4969 0.5 67.5C0.5 104.503 30.4969 134.5 67.5 134.5Z" fill="#159822" stroke="#159822"/>
<path fill-rule="evenodd" clip-rule="evenodd" d="M66 148L66 134L69 134L69 148L66 148Z" fill="#159822"/>
<g clip-path="url(#clip0)">
<path d="M99.6791 60.5147C99.6782 60.5139 99.6776 60.5131 99.6766 60.5122L99.6715 60.5076C99.6709 60.507 99.6703 60.5064 99.6696 60.5057C99.6695 60.5055 99.6692 60.5054 99.6691 60.5051L89.4125 50.933V46.4514C89.4125 45.8849 88.9535 45.4259 88.387 45.4259C87.8205 45.4259 87.3615 45.8849 87.3615 46.4514V70.6995L70.3918 86.5367C69.0509 87.7883 66.95 87.7883 65.6091 86.5367L48.6392 70.6992V40.8148C48.6392 40.1311 49.1952 39.575 49.8788 39.575H86.1218C86.8053 39.575 87.3614 40.1311 87.3614 40.8148V42.3496C87.3614 42.9161 87.8204 43.3751 88.3869 43.3751C88.9533 43.3751 89.4123 42.9161 89.4123 42.3496V40.8148C89.4123 39.0002 87.9362 37.5241 86.1218 37.5241H75.0444L71.791 34.4878C69.6656 32.5041 66.3356 32.504 64.2097 34.4878L60.9563 37.5241H49.8789C48.0643 37.5241 46.5883 39.0004 46.5883 40.8148V50.9333L36.3321 60.505C36.332 60.5051 36.3317 60.5054 36.3314 60.5055C36.3306 60.5062 36.3299 60.507 36.3291 60.5077L36.3243 60.5122C36.3235 60.5129 36.3228 60.5139 36.322 60.5146C35.6485 61.136 35.2622 62.0167 35.2622 62.9331V97.444C35.2622 100.507 37.7547 103 40.8181 103H45.5628C46.1293 103 46.5883 102.541 46.5883 101.974C46.5883 101.408 46.1293 100.949 45.5628 100.949H40.818C38.8853 100.949 37.313 99.3767 37.313 97.444V62.9347L64.2098 88.0361C65.2726 89.0282 66.6364 89.5241 68.0005 89.5241C69.3644 89.5241 70.7286 89.028 71.7913 88.0362L98.6875 62.935V97.4441C98.6875 99.3768 97.1152 100.949 95.1825 100.949H49.6648C49.0983 100.949 48.6393 101.408 48.6393 101.975C48.6393 102.541 49.0983 103 49.6648 103H95.1825C98.246 103 100.738 100.508 100.738 97.4441V62.9332C100.738 62.017 100.352 61.1364 99.6791 60.5147ZM65.609 35.9872C66.9499 34.7356 69.0508 34.7356 70.3917 35.9872L72.0383 37.5239H63.9623L65.609 35.9872ZM46.5882 68.7852L38.5269 61.2621L46.588 53.7387V68.7852H46.5882ZM89.4125 53.7386L97.4739 61.2621L89.4125 68.7856V53.7386Z" fill="#159822"/>
<path d="M92.9174 98.47C94.7319 98.47 96.208 96.9937 96.208 95.1792C96.208 93.3648 94.7318 91.8887 92.9174 91.8887H83.8565C82.0421 91.8887 80.5659 93.3648 80.5659 95.1792C80.5659 96.9937 82.0421 98.47 83.8565 98.47H92.9174ZM82.6169 95.1791C82.6169 94.4956 83.173 93.9395 83.8565 93.9395H92.9174C93.6009 93.9395 94.157 94.4956 94.157 95.1791C94.157 95.8628 93.6009 96.4188 92.9174 96.4188H83.8565C83.173 96.419 82.6169 95.8628 82.6169 95.1791Z" fill="#159822"/>
<path d="M68 64.373C66.1855 64.373 64.7095 65.8492 64.7095 67.6636C64.7095 69.478 66.1856 70.9542 68 70.9542C69.8145 70.9542 71.2906 69.478 71.2906 67.6636C71.2908 65.8492 69.8146 64.373 68 64.373ZM68 68.9034C67.3165 68.9034 66.7604 68.3473 66.7604 67.6638C66.7604 66.9802 67.3165 66.4241 68 66.4241C68.6836 66.4241 69.2396 66.9802 69.2396 67.6638C69.2398 68.3473 68.6836 68.9034 68 68.9034Z" fill="#159822"/>
<path d="M71.2909 56.6389C74.2254 55.2791 76.0272 52.2512 75.8022 48.995C75.5356 45.126 72.4169 42.0073 68.5484 41.7403C66.3882 41.5906 64.2435 42.3504 62.6644 43.8243C61.085 45.2983 60.1792 47.3825 60.1792 49.5424C60.1792 51.3568 61.6553 52.833 63.4698 52.833C65.2843 52.833 66.7603 51.3568 66.7603 49.5424C66.7603 49.1899 66.8968 48.8764 67.1548 48.6356C67.4083 48.3992 67.7436 48.2824 68.0951 48.306C68.6839 48.3466 69.1959 48.8588 69.2365 49.4478C69.2737 49.9876 68.9659 50.4874 68.4702 50.6908C66.1857 51.6289 64.7095 53.8456 64.7095 56.3381V58.6032C64.7095 60.4176 66.1858 61.8939 68.0002 61.8939C69.8148 61.8939 71.2908 60.4176 71.2908 58.6032V56.6389H71.2909ZM70.1912 54.8818C69.6132 55.1191 69.24 55.6908 69.24 56.3381V58.6032C69.24 59.2868 68.6839 59.8429 68.0004 59.8429C67.3167 59.8429 66.7606 59.2868 66.7606 58.6032V56.3381C66.7606 54.6809 67.7376 53.209 69.2494 52.588C70.5638 52.0484 71.381 50.7297 71.2829 49.3066C71.1724 47.7083 69.8343 46.37 68.2351 46.2599C68.1569 46.2546 68.0791 46.2519 68.0019 46.2519C67.1621 46.2519 66.3719 46.5613 65.7559 47.1361C65.0813 47.7656 64.7096 48.6202 64.7096 49.5426C64.7096 50.2261 64.1536 50.7822 63.47 50.7822C62.7865 50.7822 62.2304 50.2261 62.2304 49.5426C62.2304 47.9491 62.8988 46.4114 64.064 45.3237C65.2291 44.2364 66.8122 43.6762 68.4074 43.7866C71.26 43.9832 73.5597 46.2832 73.7563 49.1362C73.9281 51.6263 72.4954 53.9355 70.1912 54.8818Z" fill="#159822"/>
</g>
<defs>
<clipPath id="clip0">
<rect width="70" height="70" fill="white" transform="translate(33 33)"/>
</clipPath>
</defs>
</svg>
