<svg width="80" height="80" viewBox="0 0 80 80" fill="none" xmlns="http://www.w3.org/2000/svg">
<circle cx="40.0002" cy="40" r="37.9436" fill="white" stroke="#D1D1D1"/>
<circle cx="39.8186" cy="39.8186" r="33.3186" stroke="#D1D1D1"/>
<path d="M59.32 33.7934H56.5785V33.4855C56.5785 32.7191 55.955 32.0957 55.1886 32.0957H49.7816C49.409 32.0957 49.1069 32.3977 49.1069 32.7705C49.1069 33.1432 49.409 33.4453 49.7816 33.4453H55.1886C55.2108 33.4453 55.2289 33.4633 55.2289 33.4855V41.713C55.2289 42.0858 55.531 42.3878 55.9037 42.3878C56.2764 42.3878 56.5785 42.0858 56.5785 41.713V35.1429H59.32C59.4112 35.1429 59.4854 35.2171 59.4854 35.3084V58.8499C59.4854 60.3941 58.2292 61.6504 56.685 61.6504H23.315C21.7709 61.6504 20.5146 60.3941 20.5146 58.8499V35.3084C20.5146 35.2171 20.5888 35.1429 20.6801 35.1429H23.5115V58.2216C23.5115 59.1731 24.2856 59.9473 25.2373 59.9473H54.8527C55.8043 59.9473 56.5784 59.1732 56.5784 58.2216V44.5911C56.5784 44.2184 56.2763 43.9163 55.9036 43.9163C55.531 43.9163 55.2288 44.2184 55.2288 44.5911V54.3017H44.3114C42.8974 54.3017 41.6213 54.8997 40.7198 55.8548V47.1263C40.7198 46.7536 40.4177 46.4515 40.045 46.4515C39.6723 46.4515 39.3702 46.7536 39.3702 47.1263V55.8549C38.4687 54.8998 37.1925 54.3018 35.7786 54.3018H32.7124C32.3397 54.3018 32.0376 54.6039 32.0376 54.9766C32.0376 55.3494 32.3397 55.6514 32.7124 55.6514H35.7786C37.5387 55.6514 39.0061 56.9244 39.3111 58.5978H25.2373C25.0298 58.5978 24.8611 58.4291 24.8611 58.2216V55.6514H29.8342C30.2069 55.6514 30.509 55.3494 30.509 54.9766C30.509 54.6039 30.2069 54.3018 29.8342 54.3018H24.8611V33.4855C24.8611 33.4633 24.8792 33.4453 24.9014 33.4453H30.3084C30.681 33.4453 30.9831 33.1432 30.9831 32.7705C30.9831 32.3977 30.681 32.0957 30.3084 32.0957H24.9014C24.135 32.0957 23.5115 32.7192 23.5115 33.4855V33.7934H20.6801C19.8447 33.7934 19.165 34.473 19.165 35.3084V58.8499C19.165 61.1383 21.0267 62.9999 23.315 62.9999H56.6848C58.9731 62.9999 60.8348 61.1383 60.8348 58.8499V35.3084C60.8349 34.473 60.1554 33.7934 59.32 33.7934ZM44.3114 55.6513H55.2288V58.2216C55.2288 58.4291 55.0601 58.5978 54.8527 58.5978H40.779C41.0839 56.9243 42.5513 55.6513 44.3114 55.6513Z" fill="#159822"/>
<path d="M31.0479 26.4677C31.4184 26.5021 31.7481 26.2303 31.7831 25.8592C31.9761 23.8129 32.921 21.9183 34.444 20.5245C35.9765 19.1221 37.9654 18.3496 40.0447 18.3496C44.6209 18.3496 48.3438 22.0726 48.3438 26.6486C48.3438 28.3706 47.8212 30.0219 46.8325 31.4244C46.8269 31.4323 46.8215 31.4404 46.8162 31.4485L42.4982 38.1709C42.4283 38.2798 42.3911 38.4063 42.3911 38.5357V39.4098C42.3911 39.5873 42.2468 39.7316 42.0694 39.7316H42.0253L42.4552 32.4372H43.2239C44.3239 32.4372 45.2187 31.5423 45.2187 30.4424V30.3606C45.2187 29.2607 44.3239 28.3658 43.2239 28.3658C42.1693 28.3658 41.2946 29.1905 41.2326 30.2433L41.1828 31.0876H38.8165L38.7667 30.2433C38.7047 29.1905 37.83 28.3658 36.7754 28.3658C35.6754 28.3658 34.7806 29.2607 34.7806 30.3606V30.4424C34.7806 31.5423 35.6754 32.4372 36.7754 32.4372H37.5441L37.9737 39.7269C37.8183 39.7042 37.6982 39.5714 37.6982 39.4098V38.5357C37.6982 38.4063 37.6611 38.2798 37.5913 38.1709L33.2731 31.4485C33.2679 31.4404 33.2625 31.4323 33.2569 31.4244C32.636 30.5436 32.1988 29.5648 31.9576 28.5151C31.874 28.1519 31.5114 27.9252 31.1487 28.0086C30.7855 28.0922 30.5588 28.4543 30.6423 28.8175C30.9219 30.0338 31.4276 31.1683 32.1454 32.1898L36.3489 38.7335V39.4097C36.3489 40.091 36.7592 40.6775 37.3454 40.9375V42.0785C37.3454 43.2793 38.3222 44.2561 39.5229 44.2561H40.567C41.7676 44.2561 42.7445 43.2793 42.7445 42.0785V40.9375C43.3306 40.6775 43.741 40.0911 43.741 39.4097V38.7335L47.9444 32.1898C49.0888 30.5612 49.6937 28.6454 49.6937 26.6486C49.6933 21.3283 45.3649 17 40.0447 17C37.6273 17 35.3147 17.8982 33.5329 19.529C31.7625 21.1494 30.664 23.3524 30.4396 25.7326C30.4045 26.1037 30.6769 26.4328 31.0479 26.4677ZM42.5798 30.3226C42.5998 29.9821 42.8828 29.7153 43.2239 29.7153C43.5797 29.7153 43.8692 30.0047 43.8692 30.3605V30.4424C43.8692 30.7981 43.5797 31.0875 43.2239 31.0875H42.5347L42.5798 30.3226ZM36.7754 31.0875C36.4196 31.0875 36.1301 30.7981 36.1301 30.4424V30.3605C36.1301 30.0047 36.4196 29.7153 36.7754 29.7153C37.1166 29.7153 37.3994 29.9821 37.4195 30.3226L37.4646 31.0875H36.7754ZM41.1033 32.4371L40.6735 39.7315H39.3259L38.8961 32.4371H41.1033ZM41.3946 42.0786C41.3946 42.5352 41.0232 42.9066 40.5666 42.9066H39.5226C39.0661 42.9066 38.6946 42.5352 38.6946 42.0786V41.081H41.3945V42.0786H41.3946Z" fill="#159822"/>
<path d="M51.865 22.1239C52.023 22.1239 52.1818 22.0687 52.3099 21.9562L53.7822 20.6635C54.0622 20.4177 54.0899 19.9912 53.8441 19.7112C53.5983 19.4313 53.1719 19.4035 52.8918 19.6493L51.4195 20.942C51.1394 21.1878 51.1118 21.6143 51.3576 21.8943C51.491 22.0463 51.6776 22.1239 51.865 22.1239Z" fill="#159822"/>
<path d="M51.4195 26.1936L52.8918 27.4864C53.0199 27.599 53.1786 27.6541 53.3368 27.6541C53.5242 27.6541 53.7107 27.5765 53.8441 27.4245C54.09 27.1445 54.0623 26.7182 53.7823 26.4723L52.31 25.1795C52.0299 24.9335 51.6037 24.9613 51.3578 25.2414C51.1118 25.5214 51.1394 25.9476 51.4195 26.1936Z" fill="#159822"/>
<path d="M26.3082 20.6636L27.7805 21.9563C27.9086 22.0688 28.0673 22.124 28.2254 22.124C28.4128 22.124 28.5993 22.0464 28.7328 21.8944C28.9787 21.6144 28.9509 21.1879 28.6709 20.9421L27.1986 19.6494C26.9186 19.4035 26.4921 19.4313 26.2463 19.7113C26.0004 19.9913 26.0282 20.4177 26.3082 20.6636Z" fill="#159822"/>
<path d="M26.7531 27.654C26.9112 27.654 27.0699 27.5988 27.1981 27.4863L28.6704 26.1935C28.9504 25.9476 28.9781 25.5213 28.7322 25.2413C28.4864 24.9613 28.06 24.9336 27.7799 25.1794L26.3077 26.4722C26.0277 26.7181 26 27.1444 26.2459 27.4244C26.3792 27.5764 26.5656 27.654 26.7531 27.654Z" fill="#159822"/>
<path d="M34.0746 40.4062C34.0746 40.0335 33.7725 39.7314 33.3999 39.7314H26.7529C26.3802 39.7314 26.0781 40.0335 26.0781 40.4062C26.0781 40.779 26.3802 41.081 26.7529 41.081H33.3999C33.7725 41.081 34.0746 40.779 34.0746 40.4062Z" fill="#159822"/>
<path d="M35.4558 43.1641H27.9721C27.5995 43.1641 27.2974 43.4661 27.2974 43.8388C27.2974 44.2116 27.5995 44.5136 27.9721 44.5136H35.4558C35.8285 44.5136 36.1306 44.2116 36.1306 43.8388C36.1306 43.4661 35.8285 43.1641 35.4558 43.1641Z" fill="#159822"/>
<path d="M35.4558 46.4517H27.9721C27.5995 46.4517 27.2974 46.7537 27.2974 47.1264C27.2974 47.4992 27.5995 47.8012 27.9721 47.8012H35.4558C35.8285 47.8012 36.1306 47.4992 36.1306 47.1264C36.1306 46.7537 35.8285 46.4517 35.4558 46.4517Z" fill="#159822"/>
<path d="M35.4558 49.739H27.9721C27.5995 49.739 27.2974 50.041 27.2974 50.4138C27.2974 50.7865 27.5995 51.0886 27.9721 51.0886H35.4558C35.8285 51.0886 36.1306 50.7865 36.1306 50.4138C36.1306 50.041 35.8285 49.739 35.4558 49.739Z" fill="#159822"/>
<path d="M54.0117 40.4062C54.0117 40.0335 53.7095 39.7314 53.3369 39.7314H46.6899C46.3173 39.7314 46.0151 40.0335 46.0151 40.4062C46.0151 40.779 46.3173 41.081 46.6899 41.081H53.3369C53.7095 41.081 54.0117 40.779 54.0117 40.4062Z" fill="#159822"/>
<path d="M52.1179 43.1641H44.6343C44.2616 43.1641 43.9595 43.4661 43.9595 43.8388C43.9595 44.2116 44.2616 44.5136 44.6343 44.5136H52.1179C52.4906 44.5136 52.7927 44.2116 52.7927 43.8388C52.7927 43.4661 52.4906 43.1641 52.1179 43.1641Z" fill="#159822"/>
<path d="M52.1179 46.4517H44.6343C44.2616 46.4517 43.9595 46.7537 43.9595 47.1264C43.9595 47.4992 44.2616 47.8012 44.6343 47.8012H52.1179C52.4906 47.8012 52.7927 47.4992 52.7927 47.1264C52.7927 46.7537 52.4906 46.4517 52.1179 46.4517Z" fill="#159822"/>
<path d="M52.1179 49.739H44.6343C44.2616 49.739 43.9595 50.041 43.9595 50.4138C43.9595 50.7865 44.2616 51.0886 44.6343 51.0886H52.1179C52.4906 51.0886 52.7927 50.7865 52.7927 50.4138C52.7927 50.041 52.4906 49.739 52.1179 49.739Z" fill="#159822"/>
<path d="M77.3652 40C77.3652 60.6362 60.6362 77.3652 40 77.3652C19.3637 77.3652 2.63474 60.6362 2.63474 40C2.63474 19.3637 19.3637 2.63474 40 2.63474C60.6362 2.63474 77.3652 19.3637 77.3652 40ZM40 78.9433C61.5078 78.9433 78.9433 61.5078 78.9433 40C78.9433 18.4922 61.5078 1.05664 40 1.05664C18.4922 1.05664 1.05664 18.4922 1.05664 40C1.05664 61.5078 18.4922 78.9433 40 78.9433Z" fill="#159822" stroke="#159822"/>
</svg>
